<svg width="20" height="16" viewBox="0 0 20 16" fill="none" xmlns="http://www.w3.org/2000/svg">
<path d="M4.51413 10.9221L2.92813 9.3161C2.77691 9.16156 2.59628 9.03884 2.39688 8.9552C2.19748 8.87156 1.98336 8.82869 1.76713 8.8291H0.671135C0.586103 8.83377 0.50609 8.87084 0.447546 8.93268C0.389002 8.99453 0.356376 9.07646 0.356376 9.16162C0.356376 9.24678 0.389002 9.32869 0.447546 9.39054C0.50609 9.45238 0.586103 9.48945 0.671135 9.49411H1.77113C1.90134 9.494 2.03026 9.51976 2.15043 9.56989C2.2706 9.62001 2.37961 9.6935 2.47113 9.78611L3.49713 10.8241H0.671135C0.582818 10.8241 0.498118 10.8592 0.435668 10.9216C0.373219 10.9841 0.338135 11.0688 0.338135 11.1571C0.338135 11.2454 0.373219 11.3301 0.435668 11.3926C0.498118 11.455 0.582818 11.4901 0.671135 11.4901H4.28413C4.34889 11.4892 4.41194 11.4692 4.46532 11.4325C4.51871 11.3959 4.56005 11.3442 4.58414 11.2841C4.60929 11.2236 4.61606 11.1569 4.60361 11.0926C4.59116 11.0282 4.56005 10.9689 4.51413 10.9221Z" fill="#0A2C3D"/>
<path d="M4.28414 13.5771C4.19653 13.5776 4.1127 13.6128 4.05103 13.6751C3.98935 13.7373 3.95487 13.8214 3.95514 13.9091V14.9091C3.95567 14.9967 3.92145 15.081 3.85996 15.1434C3.79848 15.2058 3.71475 15.2413 3.62714 15.2421H1.65614C1.56853 15.2413 1.4848 15.2058 1.42332 15.1434C1.36183 15.081 1.32761 14.9967 1.32814 14.9091V13.5791C1.3306 13.5344 1.32394 13.4897 1.30854 13.4477C1.29315 13.4057 1.26935 13.3673 1.2386 13.3348C1.20786 13.3023 1.17081 13.2764 1.12972 13.2588C1.08863 13.2411 1.04437 13.2319 0.999639 13.2319C0.954907 13.2319 0.910645 13.2411 0.869558 13.2588C0.828471 13.2764 0.791423 13.3023 0.760676 13.3348C0.72993 13.3673 0.706132 13.4057 0.690737 13.4477C0.675342 13.4897 0.668674 13.5344 0.671139 13.5791V14.9091C0.669275 15.1722 0.771975 15.4254 0.956671 15.6129C1.14137 15.8005 1.39295 15.9069 1.65614 15.9091H3.62714C3.89033 15.9069 4.14191 15.8005 4.32661 15.6129C4.5113 15.4254 4.614 15.1722 4.61214 14.9091V13.9091C4.6124 13.8657 4.60413 13.8228 4.58779 13.7826C4.57144 13.7425 4.54736 13.706 4.5169 13.6751C4.48644 13.6443 4.45021 13.6198 4.41027 13.603C4.37034 13.5861 4.32748 13.5773 4.28414 13.5771Z" fill="#0A2C3D"/>
<path d="M17.8741 7.95999C16.7421 7.47999 14.2001 7.26001 9.87414 7.26001C5.54814 7.26001 3.01014 7.48299 1.87414 7.95999C1.27944 8.17556 0.773616 8.58332 0.436729 9.11871C0.0998417 9.65411 -0.0488658 10.2866 0.0141423 10.916C0.0235539 11.847 0.166683 12.7718 0.439142 13.662C0.471207 13.7401 0.527174 13.8061 0.599027 13.8505C0.670879 13.8948 0.754931 13.9153 0.839142 13.909H4.43914L5.99614 14.539C6.05485 14.563 6.11771 14.5753 6.18114 14.575H13.5811C13.6443 14.5753 13.7068 14.5631 13.7651 14.539L15.3231 13.909H18.9231C19.0074 13.9153 19.0914 13.8948 19.1633 13.8505C19.2351 13.8061 19.2911 13.7401 19.3231 13.662C19.5956 12.7718 19.7387 11.847 19.7481 10.916C19.8102 10.2849 19.6595 9.65107 19.3199 9.11545C18.9804 8.57982 18.4715 8.1731 17.8741 7.95999ZM18.5931 13.244H15.2201C15.1571 13.2437 15.0946 13.2555 15.0361 13.279L13.4781 13.909H6.27814L4.72114 13.279C4.66256 13.2558 4.60013 13.244 4.53714 13.244H1.16114C0.955757 12.4847 0.846569 11.7026 0.836142 10.916C0.768883 10.4185 0.873197 9.91287 1.13188 9.48257C1.39057 9.05228 1.78818 8.72298 2.25914 8.54901C3.24414 8.13301 5.80614 7.922 9.87614 7.922C13.9461 7.922 16.5101 8.13301 17.4951 8.54901C17.9661 8.72298 18.3637 9.05228 18.6224 9.48257C18.8811 9.91287 18.9854 10.4185 18.9181 10.916C18.907 11.7025 18.7978 12.4845 18.5931 13.244Z" fill="#0A2C3D"/>
<path d="M19.0821 10.8241H16.2621L17.2871 9.7861C17.3787 9.69359 17.4878 9.62016 17.6079 9.57004C17.7281 9.51992 17.857 9.49411 17.9871 9.49411H19.0871C19.1722 9.48945 19.2522 9.45238 19.3107 9.39054C19.3693 9.32869 19.4019 9.24678 19.4019 9.16162C19.4019 9.07646 19.3693 8.99452 19.3107 8.93268C19.2522 8.87084 19.1722 8.83377 19.0871 8.8291H17.9871C17.7708 8.82878 17.5565 8.87169 17.357 8.95532C17.1574 9.03895 16.9766 9.16162 16.8251 9.3161L15.2401 10.9221C15.1941 10.9688 15.1628 11.028 15.1501 11.0924C15.1375 11.1568 15.1441 11.2235 15.1691 11.2841C15.1931 11.3443 15.2344 11.396 15.2878 11.4327C15.3413 11.4694 15.4044 11.4894 15.4691 11.4901H19.0821C19.1705 11.4901 19.2552 11.455 19.3176 11.3926C19.3801 11.3301 19.4151 11.2454 19.4151 11.1571C19.4151 11.0688 19.3801 10.9841 19.3176 10.9216C19.2552 10.8592 19.1705 10.8241 19.0821 10.8241Z" fill="#0A2C3D"/>
<path d="M13.7871 9.02011C13.7607 8.96288 13.7184 8.91445 13.6652 8.88059C13.612 8.84673 13.5502 8.82885 13.4871 8.8291H6.26414C6.20109 8.82885 6.13929 8.84673 6.08611 8.88059C6.03292 8.91445 5.99059 8.96288 5.96414 9.02011C5.93752 9.07736 5.92762 9.14098 5.93558 9.20362C5.94354 9.26625 5.96904 9.32535 6.00914 9.37412L7.65214 11.3741C7.68264 11.4115 7.72107 11.4417 7.76465 11.4624C7.80823 11.4832 7.85587 11.494 7.90414 11.4941H11.8471C11.8954 11.494 11.9431 11.4832 11.9866 11.4624C12.0302 11.4417 12.0686 11.4115 12.0991 11.3741L13.7411 9.37412C13.7816 9.32556 13.8074 9.26649 13.8156 9.2038C13.8237 9.14111 13.8139 9.0774 13.7871 9.02011ZM11.6931 10.8201H8.06014L6.96514 9.49012H12.7881L11.6931 10.8201Z" fill="#0A2C3D"/>
<path d="M18.3901 7.82898C17.9031 6.42898 16.2761 1.80298 15.7101 1.19998C15.0051 0.446982 12.9851 0 10.3041 0H9.44914C6.76814 0 4.74914 0.447982 4.04314 1.19998C3.47714 1.79998 1.84914 6.42599 1.36314 7.82999C1.31728 7.95467 1.31411 8.09103 1.3541 8.21771C1.3941 8.3444 1.47501 8.45425 1.58414 8.53C1.63868 8.55614 1.69845 8.56954 1.75893 8.56924C1.81941 8.56895 1.87904 8.55495 1.93333 8.52829C1.98762 8.50163 2.03516 8.463 2.07237 8.41531C2.10957 8.36763 2.13548 8.31214 2.14814 8.25299C2.82481 6.1215 3.64296 4.03753 4.59714 2.01498C4.92614 1.66398 6.31914 1.06897 9.44914 1.06897H10.3041C13.4341 1.06897 14.8271 1.66399 15.1551 2.01199C16.1097 4.03597 16.9285 6.12125 17.6061 8.254C17.6298 8.34201 17.6804 8.42039 17.7509 8.47815C17.8214 8.53591 17.9082 8.57012 17.9991 8.57599C18.0583 8.5761 18.1165 8.56094 18.1681 8.53198C18.2781 8.45621 18.3596 8.34593 18.3998 8.2186C18.4401 8.09126 18.4366 7.95415 18.3901 7.82898Z" fill="#0A2C3D"/>
<path d="M18.7551 13.2439C18.7117 13.2442 18.6687 13.253 18.6286 13.2698C18.5886 13.2867 18.5522 13.3113 18.5217 13.3423C18.4911 13.3732 18.467 13.4098 18.4506 13.4501C18.4342 13.4903 18.4259 13.5334 18.4261 13.5769V14.9069C18.4267 14.9945 18.3925 15.0788 18.331 15.1412C18.2695 15.2036 18.1858 15.2391 18.0981 15.2399H16.1271C16.0395 15.2391 15.9558 15.2036 15.8943 15.1412C15.8328 15.0788 15.7986 14.9945 15.7991 14.9069V13.9069C15.8016 13.8622 15.7949 13.8175 15.7795 13.7755C15.7642 13.7335 15.7404 13.6951 15.7096 13.6626C15.6789 13.6301 15.6418 13.6042 15.6007 13.5865C15.5596 13.5689 15.5154 13.5598 15.4706 13.5598C15.4259 13.5598 15.3817 13.5689 15.3406 13.5865C15.2995 13.6042 15.2624 13.6301 15.2317 13.6626C15.2009 13.6951 15.1771 13.7335 15.1617 13.7755C15.1464 13.8175 15.1397 13.8622 15.1421 13.9069V14.9069C15.1403 15.1701 15.243 15.4232 15.4277 15.6107C15.6124 15.7983 15.864 15.9048 16.1271 15.9069H18.0981C18.3613 15.9048 18.6129 15.7983 18.7976 15.6107C18.9823 15.4232 19.085 15.1701 19.0831 14.9069V13.5769C19.0837 13.4893 19.0495 13.405 18.988 13.3426C18.9265 13.2802 18.8428 13.2447 18.7551 13.2439Z" fill="#0A2C3D"/>
</svg>
