<svg width="19" height="19" viewBox="0 0 19 19" fill="none" xmlns="http://www.w3.org/2000/svg">
<path d="M18.5201 10.318C18.5169 10.0136 18.3933 9.7229 18.1763 9.50944C17.9592 9.29597 17.6665 9.17715 17.3621 9.17902H2.67208V1.77903C2.67472 1.49364 2.79042 1.22096 2.99381 1.02076C3.19721 0.820552 3.47169 0.709169 3.75708 0.711035H4.04608C4.2788 0.710187 4.50563 0.784195 4.69308 0.922125C4.88053 1.06005 5.01866 1.25459 5.08708 1.47703C4.76937 1.56186 4.48834 1.74876 4.28723 2.00895C4.08613 2.26913 3.9761 2.58819 3.97408 2.91703V3.34403C3.97447 3.39118 3.98415 3.43777 4.00255 3.48118C4.02096 3.52458 4.04773 3.56396 4.08135 3.59702C4.11496 3.63008 4.15476 3.65619 4.19847 3.67386C4.24217 3.69154 4.28894 3.70041 4.33608 3.70002H6.65208C6.69922 3.70041 6.74599 3.69154 6.78969 3.67386C6.8334 3.65619 6.8732 3.63008 6.90681 3.59702C6.94043 3.56396 6.9672 3.52458 6.98561 3.48118C7.00401 3.43777 7.01369 3.39118 7.01408 3.34403V2.91703C7.01175 2.57514 6.8927 2.24432 6.67665 1.97935C6.46059 1.71437 6.1605 1.53113 5.82608 1.46003C5.74669 1.04724 5.52533 0.675247 5.20039 0.408575C4.87545 0.141902 4.46743 -0.00262517 4.04708 3.61069e-05H3.75708C3.28175 -0.00237285 2.82476 0.183316 2.48585 0.516607C2.14694 0.849899 1.95362 1.30372 1.94808 1.77903V9.17902H1.14808C0.875656 9.17637 0.611334 9.27163 0.403225 9.44745C0.195117 9.62328 0.0570575 9.86796 0.0141756 10.137C-0.0287063 10.406 0.0264405 10.6816 0.169578 10.9134C0.312716 11.1452 0.534329 11.3179 0.79408 11.4V12.6C0.79465 13.2001 0.914967 13.7939 1.14798 14.3468C1.381 14.8998 1.72202 15.4006 2.15108 15.82C2.05163 15.8967 1.93768 15.9525 1.81608 15.984C1.52186 16.0618 1.27027 16.2526 1.11608 16.515C1.03966 16.6438 0.990075 16.7868 0.970313 16.9353C0.95055 17.0838 0.961016 17.2347 1.00108 17.379C1.06952 17.6226 1.21591 17.837 1.41784 17.9894C1.61976 18.1419 1.86608 18.2239 2.11908 18.223C2.22037 18.2234 2.32125 18.2103 2.41908 18.184C3.12922 17.9975 3.75503 17.5755 4.19408 16.987C4.59535 17.0959 5.0093 17.151 5.42508 17.151H13.0941C13.5102 17.1511 13.9245 17.096 14.3261 16.987C14.7667 17.5742 15.3935 17.9945 16.1041 18.179C16.2019 18.2053 16.3028 18.2184 16.4041 18.218C16.6571 18.2189 16.9034 18.1369 17.1053 17.9844C17.3072 17.832 17.4536 17.6176 17.5221 17.374C17.5618 17.2297 17.5721 17.0788 17.5523 16.9304C17.5326 16.7819 17.4832 16.639 17.4071 16.51C17.253 16.2476 17.0014 16.0567 16.7071 15.979C16.5856 15.9473 16.4717 15.8915 16.3721 15.815C16.8017 15.3959 17.1432 14.8952 17.3766 14.3422C17.6099 13.7892 17.7305 13.1952 17.7311 12.595V11.395C17.9616 11.3223 18.1633 11.1785 18.307 10.9841C18.4507 10.7897 18.5292 10.5548 18.5311 10.313L18.5201 10.318ZM6.29008 2.91804V2.98902H4.69408V2.91804C4.7127 2.71967 4.80466 2.53539 4.95197 2.40125C5.09928 2.26712 5.29135 2.19279 5.49058 2.19279C5.68981 2.19279 5.88188 2.26712 6.02919 2.40125C6.1765 2.53539 6.26846 2.71967 6.28708 2.91804H6.29008ZM2.22608 17.487C2.11484 17.5171 1.99624 17.502 1.89608 17.445C1.84725 17.4172 1.80442 17.38 1.77009 17.3356C1.73575 17.2911 1.7106 17.2403 1.69608 17.186C1.68112 17.1319 1.67721 17.0753 1.6846 17.0197C1.69199 16.964 1.71052 16.9104 1.73908 16.862C1.7971 16.763 1.89205 16.6911 2.00308 16.6621C2.26578 16.5932 2.50775 16.4614 2.70808 16.278C2.94979 16.4503 3.20727 16.5993 3.47708 16.723C3.14445 17.0954 2.70924 17.3611 2.22608 17.487ZM16.7781 16.862C16.8064 16.9105 16.8248 16.9641 16.8321 17.0197C16.8395 17.0753 16.8358 17.1319 16.8211 17.186C16.7913 17.2954 16.7193 17.3885 16.6211 17.445C16.5209 17.502 16.4023 17.5171 16.2911 17.487C15.809 17.3606 15.3749 17.0949 15.0431 16.723C15.3128 16.5991 15.5702 16.4501 15.8121 16.278C16.0124 16.4614 16.2544 16.5932 16.5171 16.6621C16.6281 16.6911 16.7231 16.763 16.7811 16.862H16.7781ZM17.3631 10.741H10.8941C10.7997 10.741 10.7091 10.7785 10.6423 10.8453C10.5756 10.9121 10.5381 11.0026 10.5381 11.097C10.5381 11.1914 10.5756 11.282 10.6423 11.3488C10.7091 11.4155 10.7997 11.453 10.8941 11.453H17.0041V12.591C16.9946 13.6187 16.5777 14.6006 15.8451 15.3212C15.1124 16.0419 14.1238 16.4425 13.0961 16.435H5.42108C4.39349 16.4422 3.40498 16.0416 2.67237 15.321C1.93976 14.6004 1.52285 13.6186 1.51308 12.591V11.457H7.63308C7.7275 11.457 7.81805 11.4195 7.88481 11.3528C7.95157 11.286 7.98908 11.1954 7.98908 11.101C7.98908 11.0066 7.95157 10.9161 7.88481 10.8493C7.81805 10.7825 7.7275 10.745 7.63308 10.745H1.15108C1.03783 10.745 0.929223 10.7 0.849145 10.62C0.769067 10.5399 0.72408 10.4313 0.72408 10.318C0.72408 10.2048 0.769067 10.0962 0.849145 10.0161C0.929223 9.93601 1.03783 9.89103 1.15108 9.89103H17.3631C17.4763 9.89103 17.5849 9.93601 17.665 10.0161C17.7451 10.0962 17.7901 10.2048 17.7901 10.318C17.7901 10.4313 17.7451 10.5399 17.665 10.62C17.5849 10.7 17.4763 10.745 17.3631 10.745V10.741Z" fill="#0A2C3D"/>
<path d="M9.25609 10.825C9.17836 10.8253 9.10379 10.8557 9.04809 10.9099C9.02054 10.9366 8.99863 10.9685 8.98367 11.0038C8.96871 11.0391 8.961 11.0771 8.961 11.1154C8.961 11.1538 8.96871 11.1917 8.98367 11.2271C8.99863 11.2624 9.02054 11.2943 9.04809 11.321C9.10403 11.375 9.17879 11.4052 9.25659 11.4052C9.33439 11.4052 9.40915 11.375 9.46509 11.321C9.49227 11.2941 9.51385 11.2621 9.52857 11.2268C9.5433 11.1915 9.55089 11.1537 9.55089 11.1154C9.55089 11.0772 9.5433 11.0394 9.52857 11.0041C9.51385 10.9688 9.49227 10.9368 9.46509 10.9099C9.40913 10.8555 9.33416 10.825 9.25609 10.825Z" fill="#0A2C3D"/>
<path d="M14.7611 2.52798C14.8 2.52891 14.8387 2.52209 14.8749 2.5079C14.9111 2.49372 14.9442 2.47249 14.9721 2.4454C15 2.41832 15.0223 2.38591 15.0375 2.35013C15.0528 2.31435 15.0608 2.2759 15.0611 2.237V1.85898C15.0483 1.79004 15.0118 1.72776 14.958 1.68292C14.9041 1.63808 14.8362 1.61353 14.7661 1.61353C14.696 1.61353 14.6281 1.63808 14.5742 1.68292C14.5203 1.72776 14.4838 1.79004 14.4711 1.85898V2.237C14.4716 2.31384 14.5023 2.3874 14.5565 2.44183C14.6108 2.49627 14.6842 2.5272 14.7611 2.52798Z" fill="#0A2C3D"/>
<path d="M14.7611 5.39102C14.8 5.39195 14.8387 5.38512 14.8749 5.37094C14.9111 5.35676 14.9442 5.3355 14.9721 5.30841C15 5.28132 15.0223 5.24895 15.0375 5.21317C15.0528 5.17739 15.0608 5.13891 15.0611 5.10001V4.73303C15.0483 4.6641 15.0118 4.60178 14.958 4.55695C14.9041 4.51211 14.8362 4.48755 14.7661 4.48755C14.696 4.48755 14.6281 4.51211 14.5742 4.55695C14.5203 4.60178 14.4838 4.6641 14.4711 4.73303V5.10001C14.4716 5.17685 14.5023 5.25044 14.5565 5.30487C14.6108 5.3593 14.6842 5.39024 14.7611 5.39102Z" fill="#0A2C3D"/>
<path d="M16.2481 3.98508H16.6311C16.6693 3.98508 16.7071 3.97758 16.7425 3.96295C16.7778 3.94833 16.8098 3.92689 16.8369 3.89987C16.8639 3.87285 16.8853 3.84076 16.8999 3.80545C16.9146 3.77014 16.9221 3.73231 16.9221 3.69409C16.9221 3.65588 16.9146 3.61804 16.8999 3.58273C16.8853 3.54743 16.8639 3.51533 16.8369 3.48831C16.8098 3.46129 16.7778 3.43986 16.7425 3.42523C16.7071 3.41061 16.6693 3.40308 16.6311 3.40308H16.2481C16.2099 3.40308 16.172 3.41061 16.1367 3.42523C16.1014 3.43986 16.0693 3.46129 16.0423 3.48831C16.0153 3.51533 15.9939 3.54743 15.9792 3.58273C15.9646 3.61804 15.9571 3.65588 15.9571 3.69409C15.9571 3.73231 15.9646 3.77014 15.9792 3.80545C15.9939 3.84076 16.0153 3.87285 16.0423 3.89987C16.0693 3.92689 16.1014 3.94833 16.1367 3.96295C16.172 3.97758 16.2099 3.98508 16.2481 3.98508Z" fill="#0A2C3D"/>
<path d="M13.3341 3.98508H13.7181C13.7563 3.98508 13.7941 3.97758 13.8295 3.96295C13.8648 3.94833 13.8968 3.92689 13.9239 3.89987C13.9509 3.87285 13.9723 3.84076 13.9869 3.80545C14.0016 3.77014 14.0091 3.73231 14.0091 3.69409C14.0091 3.65588 14.0016 3.61804 13.9869 3.58273C13.9723 3.54743 13.9509 3.51533 13.9239 3.48831C13.8968 3.46129 13.8648 3.43986 13.8295 3.42523C13.7941 3.41061 13.7563 3.40308 13.7181 3.40308H13.3341C13.2959 3.40308 13.258 3.41061 13.2227 3.42523C13.1874 3.43986 13.1553 3.46129 13.1283 3.48831C13.1013 3.51533 13.0799 3.54743 13.0652 3.58273C13.0506 3.61804 13.0431 3.65588 13.0431 3.69409C13.0431 3.73231 13.0506 3.77014 13.0652 3.80545C13.0799 3.84076 13.1013 3.87285 13.1283 3.89987C13.1553 3.92689 13.1874 3.94833 13.2227 3.96295C13.258 3.97758 13.2959 3.98508 13.3341 3.98508Z" fill="#0A2C3D"/>
<path d="M9.26107 5.13809C9.29996 5.13902 9.33865 5.13219 9.37488 5.11801C9.41111 5.10383 9.44415 5.08257 9.47208 5.05548C9.50001 5.02839 9.52226 4.99602 9.53754 4.96024C9.55281 4.92446 9.56081 4.88601 9.56107 4.84711V4.46909C9.54832 4.40015 9.51184 4.33787 9.45795 4.29303C9.40406 4.24819 9.33617 4.22363 9.26607 4.22363C9.19597 4.22363 9.12808 4.24819 9.07419 4.29303C9.0203 4.33787 8.98381 4.40015 8.97107 4.46909V4.84711C8.97159 4.92395 9.00228 4.99751 9.05652 5.05194C9.11077 5.10637 9.18423 5.13731 9.26107 5.13809Z" fill="#0A2C3D"/>
<path d="M9.26107 7.62515C9.29996 7.62608 9.33865 7.61925 9.37488 7.60507C9.41111 7.59089 9.44415 7.56963 9.47208 7.54254C9.50001 7.51545 9.52226 7.48308 9.53754 7.4473C9.55281 7.41152 9.56081 7.37304 9.56107 7.33414V6.96713C9.54832 6.8982 9.51184 6.83591 9.45795 6.79108C9.40406 6.74624 9.33617 6.72168 9.26607 6.72168C9.19597 6.72168 9.12808 6.74624 9.07419 6.79108C9.0203 6.83591 8.98381 6.8982 8.97107 6.96713V7.33414C8.97159 7.41098 9.00228 7.48454 9.05652 7.53897C9.11077 7.5934 9.18423 7.62437 9.26107 7.62515Z" fill="#0A2C3D"/>
<path d="M10.3341 6.20798H10.7181C10.7953 6.20798 10.8693 6.17731 10.9239 6.12274C10.9784 6.06817 11.0091 5.99417 11.0091 5.91699C11.0091 5.83981 10.9784 5.76579 10.9239 5.71121C10.8693 5.65664 10.7953 5.62598 10.7181 5.62598H10.3341C10.2569 5.62598 10.1829 5.65664 10.1283 5.71121C10.0737 5.76579 10.0431 5.83981 10.0431 5.91699C10.0431 5.99417 10.0737 6.06817 10.1283 6.12274C10.1829 6.17731 10.2569 6.20798 10.3341 6.20798Z" fill="#0A2C3D"/>
<path d="M7.80507 6.20798H8.18907C8.26625 6.20798 8.34026 6.17731 8.39484 6.12274C8.44941 6.06817 8.48007 5.99417 8.48007 5.91699C8.48007 5.83981 8.44941 5.76579 8.39484 5.71121C8.34026 5.65664 8.26625 5.62598 8.18907 5.62598H7.80507C7.72789 5.62598 7.65387 5.65664 7.5993 5.71121C7.54473 5.76579 7.51407 5.83981 7.51407 5.91699C7.51407 5.99417 7.54473 6.06817 7.5993 6.12274C7.65387 6.17731 7.72789 6.20798 7.80507 6.20798Z" fill="#0A2C3D"/>
</svg>
