<svg width="15" height="14" viewBox="0 0 15 14" fill="none" xmlns="http://www.w3.org/2000/svg">
<path d="M14.272 0.000214305H3.934C3.82396 -0.00330946 3.71697 0.0367402 3.63627 0.111634C3.55558 0.186528 3.50768 0.290242 3.503 0.400239V6.48721H0.431C0.32003 6.48398 0.212313 6.52492 0.131504 6.60104C0.0506939 6.67717 0.00339741 6.78225 0 6.89322L0 13.4402C0.00103441 13.4956 0.0130356 13.5502 0.0353097 13.6009C0.0575838 13.6516 0.0896888 13.6974 0.129768 13.7356C0.169848 13.7738 0.217106 13.8037 0.268811 13.8236C0.320516 13.8434 0.375642 13.8528 0.431 13.8512H7.38C7.49097 13.8545 7.59869 13.8135 7.6795 13.7374C7.76031 13.6613 7.8076 13.5562 7.811 13.4452V10.5512H14.272C14.382 10.5548 14.489 10.5147 14.5697 10.4398C14.6504 10.3649 14.6983 10.2612 14.703 10.1512V0.411225C14.7021 0.355813 14.6902 0.301133 14.668 0.250367C14.6457 0.199601 14.6136 0.153756 14.5735 0.11551C14.5334 0.0772639 14.4861 0.0473812 14.4343 0.0275886C14.3826 0.00779599 14.3274 -0.00151659 14.272 0.000214305ZM6.949 13.0392H0.862V7.30423H3.5V10.1452C3.50468 10.2552 3.55258 10.3589 3.63327 10.4338C3.71397 10.5087 3.82096 10.5488 3.931 10.5452H6.949V13.0392ZM6.949 9.73923H4.365V7.30423H6.949V9.73923ZM13.841 9.73923H7.811V6.89822C7.8076 6.78726 7.76031 6.68217 7.6795 6.60605C7.59869 6.52993 7.49097 6.48899 7.38 6.49222H4.365V0.811219H13.841V9.73923Z" fill="#0A2C3D"/>
<path d="M12.98 2.02729C12.9787 1.93269 12.9431 1.84178 12.88 1.77131C12.8382 1.72444 12.7868 1.687 12.7294 1.66148C12.672 1.63596 12.6098 1.62295 12.547 1.6233H9.965C9.91006 1.62057 9.85513 1.62903 9.80355 1.64818C9.75198 1.66732 9.70484 1.69677 9.66498 1.73469C9.62513 1.77262 9.5934 1.81823 9.57172 1.86879C9.55004 1.91935 9.53886 1.97378 9.53886 2.02879C9.53886 2.0838 9.55004 2.13826 9.57172 2.18882C9.5934 2.23938 9.62513 2.285 9.66498 2.32292C9.70484 2.36084 9.75198 2.39026 9.80355 2.40941C9.85513 2.42855 9.91006 2.43704 9.965 2.43431H11.509L8.8 4.98829C8.76003 5.02466 8.72809 5.06897 8.70624 5.11839C8.68439 5.16781 8.6731 5.22127 8.6731 5.27531C8.6731 5.32935 8.68439 5.38278 8.70624 5.4322C8.72809 5.48162 8.76003 5.52593 8.8 5.5623C8.88294 5.63883 8.99165 5.68132 9.1045 5.68132C9.21735 5.68132 9.32607 5.63883 9.409 5.5623L12.119 3.00831V4.4633C12.1264 4.57253 12.1751 4.67487 12.2551 4.74962C12.3351 4.82436 12.4405 4.86592 12.55 4.86592C12.6595 4.86592 12.7649 4.82436 12.8449 4.74962C12.9249 4.67487 12.9736 4.57253 12.981 4.4633V2.02729H12.98Z" fill="#0A2C3D"/>
</svg>
