<svg width="18" height="17" viewBox="0 0 18 17" fill="none" xmlns="http://www.w3.org/2000/svg">
<path d="M17.6751 9.47501H17.3751V8.52802C17.3784 8.22642 17.2955 7.93015 17.136 7.67413C16.9766 7.41812 16.7473 7.21302 16.4751 7.08301V2.20999C16.4757 2.14969 16.4591 2.09047 16.4272 2.03928C16.3953 1.98809 16.3495 1.94705 16.2951 1.92099C16.4126 1.72159 16.4748 1.49445 16.4751 1.263C16.4751 0.944741 16.3487 0.639503 16.1236 0.414459C15.8986 0.189416 15.5934 0.0629883 15.2751 0.0629883C14.9568 0.0629883 14.6516 0.189416 14.4266 0.414459C14.2015 0.639503 14.0751 0.944741 14.0751 1.263C14.0756 1.48406 14.1328 1.70131 14.2411 1.89401H3.72811C3.83643 1.70131 3.89358 1.48406 3.89411 1.263C3.90244 0.936394 3.78069 0.619848 3.55565 0.382996C3.33062 0.146143 3.02071 0.00837988 2.69411 0C2.3675 0.00837988 2.0576 0.146143 1.83256 0.382996C1.60752 0.619848 1.48578 0.936394 1.49411 1.263C1.49446 1.49445 1.5566 1.72159 1.67411 1.92099C1.61972 1.94705 1.5739 1.98809 1.54201 2.03928C1.51013 2.09047 1.49351 2.14969 1.49411 2.20999V7.08301C1.22195 7.21302 0.99263 7.41812 0.833173 7.67413C0.673716 7.93015 0.590769 8.22642 0.594107 8.52802V9.47501H0.300107C0.218499 9.47736 0.14114 9.51193 0.0849287 9.57114C0.0287176 9.63035 -0.00177693 9.7094 0.000106565 9.79102V14.214C-0.000957755 14.2544 0.00595914 14.2947 0.020462 14.3325C0.0349648 14.3703 0.0567694 14.4048 0.0846296 14.4342C0.11249 14.4635 0.14586 14.4871 0.182832 14.5035C0.219805 14.52 0.259655 14.529 0.300107 14.53H0.600107V16.11C0.599042 16.1505 0.605959 16.1907 0.620462 16.2285C0.634965 16.2663 0.656769 16.3008 0.68463 16.3302C0.71249 16.3595 0.74586 16.3831 0.782832 16.3995C0.819805 16.416 0.859655 16.425 0.900107 16.426H2.10011C2.1406 16.4251 2.18051 16.4162 2.21754 16.3998C2.25458 16.3834 2.288 16.3598 2.31589 16.3304C2.34377 16.3011 2.36557 16.2665 2.38002 16.2286C2.39448 16.1908 2.4013 16.1505 2.40011 16.11V14.53H15.5791V16.11C15.578 16.1505 15.585 16.1907 15.5995 16.2285C15.614 16.2663 15.6358 16.3008 15.6636 16.3302C15.6915 16.3595 15.7249 16.3831 15.7618 16.3995C15.7988 16.416 15.8387 16.425 15.8791 16.426H17.0791C17.1196 16.425 17.1594 16.416 17.1964 16.3995C17.2334 16.3831 17.2667 16.3595 17.2946 16.3302C17.3224 16.3008 17.3442 16.2663 17.3588 16.2285C17.3733 16.1907 17.3802 16.1505 17.3791 16.11V14.53H17.6791C17.7196 14.529 17.7594 14.52 17.7964 14.5035C17.8334 14.4871 17.8667 14.4635 17.8946 14.4342C17.9224 14.4048 17.9442 14.3703 17.9588 14.3325C17.9733 14.2947 17.9802 14.2544 17.9791 14.214V9.79102C17.98 9.75027 17.9729 9.70973 17.9581 9.67175C17.9433 9.63378 17.9211 9.5991 17.8929 9.56973C17.8646 9.54036 17.8308 9.51687 17.7935 9.50061C17.7561 9.48435 17.7159 9.47565 17.6751 9.47501ZM15.2751 0.630005C15.4015 0.623405 15.5271 0.65487 15.6354 0.720337C15.7438 0.785804 15.83 0.882264 15.883 0.997253C15.936 1.11224 15.9533 1.24047 15.9326 1.36539C15.912 1.4903 15.8543 1.60615 15.7672 1.69797C15.68 1.78979 15.5673 1.85336 15.4436 1.88046C15.32 1.90757 15.191 1.89698 15.0734 1.85004C14.9558 1.8031 14.855 1.72195 14.784 1.61713C14.713 1.5123 14.6751 1.3886 14.6751 1.26199C14.6728 1.18068 14.6867 1.09973 14.7159 1.0238C14.7451 0.947879 14.789 0.878493 14.8452 0.819641C14.9014 0.76079 14.9686 0.713629 15.0431 0.680908C15.1176 0.648188 15.1978 0.630551 15.2791 0.628998L15.2751 0.630005ZM2.69211 0.630005C2.85207 0.641037 3.00189 0.712375 3.1113 0.82959C3.22071 0.946805 3.28155 1.10116 3.28155 1.26151C3.28155 1.42185 3.22071 1.57621 3.1113 1.69342C3.00189 1.81064 2.85207 1.88197 2.69211 1.89301C2.53214 1.88197 2.38233 1.81064 2.27292 1.69342C2.16351 1.57621 2.10266 1.42185 2.10266 1.26151C2.10266 1.10116 2.16351 0.946805 2.27292 0.82959C2.38233 0.712375 2.53214 0.641037 2.69211 0.630005ZM2.09211 2.53H15.8781V6.95099H14.6721C14.8718 6.67558 14.9796 6.34421 14.9801 6.004V5.37201C14.9903 4.96369 14.8381 4.56798 14.5569 4.27176C14.2757 3.97554 13.8884 3.80299 13.4801 3.79199H11.0801C10.6718 3.80299 10.2845 3.97554 10.0033 4.27176C9.7221 4.56798 9.56989 4.96369 9.58011 5.37201V6.004C9.5806 6.34421 9.68837 6.67558 9.88811 6.95099H8.08111C8.28084 6.67558 8.38862 6.34421 8.38911 6.004V5.37201C8.39932 4.96369 8.24711 4.56798 7.96589 4.27176C7.68467 3.97554 7.29741 3.80299 6.88911 3.79199H4.48911C4.08089 3.80325 3.69379 3.97587 3.41262 4.27203C3.13145 4.5682 2.97916 4.96376 2.98911 5.37201V6.004C2.9896 6.34421 3.09737 6.67558 3.29711 6.95099H2.10011L2.09211 2.53ZM14.3761 5.37299V6.005C14.3823 6.24992 14.2909 6.48724 14.1222 6.66483C13.9534 6.84241 13.721 6.94571 13.4761 6.952H11.0761C10.8312 6.94571 10.5988 6.84241 10.43 6.66483C10.2613 6.48724 10.1699 6.24992 10.1761 6.005V5.37299C10.1699 5.12807 10.2613 4.89075 10.43 4.71317C10.5988 4.53558 10.8312 4.43228 11.0761 4.42599H13.4761C13.7208 4.43125 13.9535 4.53341 14.123 4.71002C14.2924 4.88663 14.3849 5.12328 14.3801 5.36801L14.3761 5.37299ZM7.78511 5.37299V6.005C7.79129 6.24992 7.69995 6.48724 7.53118 6.66483C7.3624 6.84241 7.13002 6.94571 6.88511 6.952H4.48511C4.2402 6.94571 4.00781 6.84241 3.83904 6.66483C3.67027 6.48724 3.57893 6.24992 3.58511 6.005V5.37299C3.57893 5.12807 3.67027 4.89075 3.83904 4.71317C4.00781 4.53558 4.2402 4.43228 4.48511 4.42599H6.88511C7.12983 4.43125 7.36247 4.53341 7.53196 4.71002C7.70145 4.88663 7.79393 5.12328 7.78911 5.36801L7.78511 5.37299ZM1.20011 8.52701C1.19393 8.2821 1.28527 8.04474 1.45404 7.86716C1.62281 7.68957 1.8552 7.58627 2.10011 7.57999H15.8781C16.123 7.58627 16.3554 7.68957 16.5242 7.86716C16.6929 8.04474 16.7843 8.2821 16.7781 8.52701V9.474H1.20011V8.52701ZM1.80011 15.793H1.20011V14.53H1.80011V15.793ZM16.7791 15.793H16.1791V14.53H16.7791V15.793ZM17.3791 13.898H0.600107V10.106H17.3761L17.3791 13.898Z" fill="#0A2C3D"/>
<path d="M2.36711 12.689H1.31511C1.24442 12.6949 1.17854 12.7272 1.13053 12.7794C1.08252 12.8316 1.05588 12.9 1.05588 12.9709C1.05588 13.0419 1.08252 13.1102 1.13053 13.1625C1.17854 13.2147 1.24442 13.247 1.31511 13.253H2.36711C2.4378 13.247 2.50367 13.2147 2.55168 13.1625C2.59969 13.1102 2.62634 13.0419 2.62634 12.9709C2.62634 12.9 2.59969 12.8316 2.55168 12.7794C2.50367 12.7272 2.4378 12.6949 2.36711 12.689Z" fill="#0A2C3D"/>
<path d="M16.6151 12.689H3.67112C3.63209 12.6857 3.5928 12.6905 3.55574 12.7032C3.51869 12.7159 3.48466 12.7361 3.45583 12.7626C3.42699 12.7891 3.40397 12.8213 3.38823 12.8572C3.37248 12.8931 3.36435 12.9318 3.36435 12.971C3.36435 13.0101 3.37248 13.0489 3.38823 13.0847C3.40397 13.1206 3.42699 13.1528 3.45583 13.1793C3.48466 13.2058 3.51869 13.2261 3.55574 13.2387C3.5928 13.2514 3.63209 13.2563 3.67112 13.253H16.6151C16.6541 13.2563 16.6934 13.2514 16.7305 13.2387C16.7676 13.2261 16.8016 13.2058 16.8304 13.1793C16.8592 13.1528 16.8823 13.1206 16.898 13.0847C16.9138 13.0489 16.9219 13.0101 16.9219 12.971C16.9219 12.9318 16.9138 12.8931 16.898 12.8572C16.8823 12.8213 16.8592 12.7891 16.8304 12.7626C16.8016 12.7361 16.7676 12.7159 16.7305 12.7032C16.6934 12.6905 16.6541 12.6857 16.6151 12.689Z" fill="#0A2C3D"/>
</svg>
