<svg width="37" height="31" viewBox="0 0 37 31" fill="none" xmlns="http://www.w3.org/2000/svg">
<g filter="url(#filter0_d_8_1676)">
<path d="M30.9643 9.65601C30.3988 8.99473 29.7053 8.45474 28.9256 8.06857C28.1459 7.68241 27.2961 7.45804 26.4273 7.409C26.4193 7.29 26.4133 7.12499 26.4133 6.89999C26.6226 5.10997 26.9666 3.33829 27.4423 1.60001L27.8503 0H22.9033L22.5723 0.593018C20.3843 5.05075 19.2816 9.96277 19.3543 14.928C19.3543 19.078 22.3923 22.454 26.1273 22.454C29.8623 22.454 32.9013 19.078 32.9013 14.928C32.9203 12.9932 32.2314 11.1183 30.9643 9.65601ZM26.1303 19.945C24.8681 19.8737 23.6851 19.3063 22.8394 18.3665C21.9937 17.4267 21.5537 16.1908 21.6153 14.928C21.5943 10.6527 22.4762 6.42103 24.2033 2.51001H24.8873C24.5197 3.94994 24.2755 5.41857 24.1573 6.89999C24.1125 7.57011 24.2191 8.24173 24.4693 8.86499C24.6169 9.18825 24.8575 9.46026 25.1602 9.64636C25.4629 9.83246 25.8142 9.92425 26.1693 9.91H26.2183C27.4488 10.0621 28.5803 10.6616 29.3973 11.5942C30.2143 12.5268 30.6597 13.7273 30.6485 14.9671C30.6374 16.2069 30.1706 17.3993 29.337 18.3171C28.5034 19.2349 27.3613 19.814 26.1283 19.944L26.1303 19.945Z" fill="#0A2C3D"/>
<path d="M15.6103 9.65601C15.0449 8.99464 14.3514 8.45459 13.5717 8.06842C12.7919 7.68225 11.9421 7.45793 11.0733 7.409C11.0653 7.29 11.0593 7.12499 11.0593 6.89999C11.2685 5.10988 11.6128 3.33817 12.0893 1.60001L12.4963 0H7.55233L7.22133 0.593018C5.03376 5.05091 3.93111 9.96282 4.00333 14.928C4.00333 19.078 7.04233 22.454 10.7773 22.454C14.5123 22.454 17.5503 19.078 17.5503 14.928C17.5684 12.9929 16.8785 11.1178 15.6103 9.65601ZM10.7773 19.945C9.51497 19.8737 8.33196 19.3063 7.48606 18.3666C6.64017 17.4268 6.19995 16.1909 6.26133 14.928C6.23967 10.6528 7.12088 6.42118 8.84733 2.51001H9.53133C9.16367 3.94994 8.91946 5.41857 8.80133 6.89999C8.75646 7.57011 8.8631 8.24173 9.11333 8.86499C9.26106 9.18817 9.50159 9.46012 9.80431 9.64621C10.107 9.8323 10.4583 9.92411 10.8133 9.91H10.8623C12.0928 10.062 13.2244 10.6614 14.0415 11.5939C14.8585 12.5264 15.304 13.7269 15.293 14.9667C15.282 16.2065 14.8153 17.3989 13.9818 18.3168C13.1483 19.2346 12.0063 19.8138 10.7733 19.944L10.7773 19.945Z" fill="#0A2C3D"/>
</g>
<defs>
<filter id="filter0_d_8_1676" x="0" y="0" width="36.9017" height="30.4541" filterUnits="userSpaceOnUse" color-interpolation-filters="sRGB">
<feFlood flood-opacity="0" result="BackgroundImageFix"/>
<feColorMatrix in="SourceAlpha" type="matrix" values="0 0 0 0 0 0 0 0 0 0 0 0 0 0 0 0 0 0 127 0" result="hardAlpha"/>
<feOffset dy="4"/>
<feGaussianBlur stdDeviation="2"/>
<feComposite in2="hardAlpha" operator="out"/>
<feColorMatrix type="matrix" values="0 0 0 0 0 0 0 0 0 0 0 0 0 0 0 0 0 0 0.25 0"/>
<feBlend mode="normal" in2="BackgroundImageFix" result="effect1_dropShadow_8_1676"/>
<feBlend mode="normal" in="SourceGraphic" in2="effect1_dropShadow_8_1676" result="shape"/>
</filter>
</defs>
</svg>
