<svg width="64" height="62" viewBox="0 0 64 62" fill="none" xmlns="http://www.w3.org/2000/svg">
<path opacity="0.16" d="M47.4999 4.9502C50.1699 4.9502 52.78 5.74196 55.0001 7.22536C57.2201 8.70875 58.9505 10.8172 59.9723 13.284C60.994 15.7508 61.2614 18.4652 60.7405 21.0839C60.2196 23.7027 58.9338 26.1081 57.0458 27.9961C55.1578 29.8841 52.7523 31.1699 50.1336 31.6908C47.5149 32.2117 44.8005 31.9444 42.3337 30.9226C39.8668 29.9008 37.7584 28.1705 36.275 25.9504C34.7916 23.7303 33.9999 21.1202 33.9999 18.4502C33.9999 14.8698 35.4222 11.436 37.9539 8.90425C40.4857 6.37251 43.9195 4.9502 47.4999 4.9502Z" fill="#FF5A3C"/>
<path d="M61.6769 49.6706V40.6396C61.6679 40.0181 61.465 39.415 61.0963 38.9146C60.7277 38.4141 60.2118 38.0415 59.6209 37.8487V36.6756C59.6051 35.8727 59.2717 35.1087 58.6936 34.5513C58.1155 33.9938 57.3399 33.6883 56.5369 33.7016H45.0399C44.8175 33.1153 44.421 32.611 43.9037 32.2566C43.3864 31.9021 42.773 31.7144 42.1459 31.7186V19.3187C42.1359 18.0804 41.7934 16.8676 41.1541 15.8072C40.5148 14.7467 39.6022 13.8776 38.5119 13.2906L18.8069 2.46264C18.3439 1.70785 17.6945 1.08492 16.9211 0.653738C16.1477 0.222556 15.2764 -0.00234633 14.3909 0.000661509C13.0589 -0.0208735 11.7722 0.484135 10.8105 1.40597C9.84882 2.3278 9.28978 3.59192 9.25491 4.92364L8.25491 33.7986C7.10754 34.0007 6.06637 34.5961 5.31031 35.4824C4.55425 36.3688 4.13051 37.4908 4.11191 38.6557C4.11513 39.6857 4.4496 40.6873 5.06591 41.5127L2.14091 44.8017C0.685747 46.4203 -0.0800359 48.5431 0.00662985 50.7179C0.0932956 52.8928 1.02556 54.9479 2.60491 56.4456L5.68991 59.4206C7.0566 60.735 8.88175 61.465 10.7779 61.4556H21.5869V59.4737H19.5309V54.0416L15.9999 51.3176C15.4758 50.9202 15.0373 50.4211 14.7108 49.8501C14.3843 49.279 14.1765 48.6479 14.0999 47.9946L13.3629 41.5947C14.0223 40.7556 14.3833 39.7208 14.3889 38.6536C14.3821 37.9189 14.2089 37.1953 13.8822 36.5371C13.5556 35.8789 13.084 35.3034 12.5029 34.8537L17.2819 9.04766C17.4589 8.92474 17.6282 8.79113 17.7889 8.64763L28.3349 18.8176C27.9592 19.4174 27.7577 20.1099 27.7529 20.8176C27.7667 21.7076 28.0776 22.5674 28.6362 23.2603C29.1949 23.9532 29.9691 24.4394 30.8359 24.6417V31.7207H30.4659C29.7646 31.7134 29.082 31.9466 28.5317 32.3815C27.9815 32.8164 27.5969 33.4266 27.4419 34.1106L24.6889 47.3866L24.6749 49.6666C24.0248 50.2969 23.5074 51.0508 23.1533 51.8841C22.7992 52.7174 22.6154 53.6132 22.6129 54.5186C22.6502 56.392 23.4287 58.1741 24.7778 59.4745C26.1269 60.7748 27.9364 61.4873 29.8099 61.4556H56.5369C58.4112 61.488 60.2219 60.7757 61.5716 59.4748C62.9214 58.174 63.7001 56.3909 63.7369 54.5167C63.7336 53.6124 63.5496 52.718 63.1959 51.8858C62.8421 51.0536 62.3257 50.3005 61.6769 49.6706ZM9.25191 35.6836C9.65164 35.669 10.0502 35.7351 10.4238 35.8779C10.7975 36.0208 11.1384 36.2375 11.4264 36.5151C11.7144 36.7927 11.9435 37.1255 12.0999 37.4936C12.2564 37.8618 12.337 38.2576 12.337 38.6576C12.337 39.0576 12.2564 39.4535 12.0999 39.8217C11.9435 40.1898 11.7144 40.5226 11.4264 40.8002C11.1384 41.0778 10.7975 41.2945 10.4238 41.4374C10.0502 41.5802 9.65164 41.6463 9.25191 41.6316C8.85218 41.6463 8.4536 41.5802 8.07998 41.4374C7.70636 41.2945 7.36538 41.0778 7.0774 40.8002C6.78942 40.5226 6.56036 40.1898 6.40391 39.8217C6.24746 39.4535 6.16682 39.0576 6.16682 38.6576C6.16682 38.2576 6.24746 37.8618 6.40391 37.4936C6.56036 37.1255 6.78942 36.7927 7.0774 36.5151C7.36538 36.2375 7.70636 36.0208 8.07998 35.8779C8.4536 35.7351 8.85218 35.669 9.25191 35.6836ZM14.7159 52.8657L17.4749 54.9926V55.5087H15.4189V57.4907H17.4749V59.4737H10.7749C9.42037 59.4806 8.11646 58.9594 7.13991 58.0206L4.05491 55.0466C2.84079 53.8946 2.1243 52.3142 2.058 50.6418C1.99169 48.9694 2.5808 47.3372 3.69991 46.0926L6.56891 42.8667C7.30134 43.3108 8.13288 43.5653 8.9884 43.6074C9.84392 43.6495 10.6964 43.4777 11.4689 43.1077L12.0569 48.2077C12.1629 49.1233 12.4532 50.008 12.9101 50.8085C13.3671 51.609 13.9814 52.3088 14.7159 52.8657ZM10.5999 33.8946C10.4999 33.8686 10.4139 33.8297 10.3159 33.8097L11.1809 8.79064C12.0963 9.51487 13.2287 9.91008 14.3959 9.91265C14.6161 9.90522 14.8355 9.88351 15.0529 9.84765L10.5999 33.8946ZM14.3999 7.92965C13.8165 7.90826 13.2524 7.71571 12.7776 7.376C12.3029 7.03628 11.9386 6.56441 11.7301 6.01916C11.5216 5.4739 11.4782 4.87937 11.6051 4.30959C11.7321 3.73981 12.0239 3.21996 12.4442 2.81481C12.8644 2.40966 13.3946 2.13712 13.9687 2.03112C14.5427 1.92511 15.1353 1.99032 15.6725 2.21865C16.2098 2.44697 16.668 2.82832 16.9901 3.31518C17.3122 3.80203 17.4839 4.3729 17.4839 4.95666C17.4679 5.76102 17.133 6.52609 16.553 7.08361C15.973 7.64113 15.1953 7.94545 14.3909 7.92965H14.3999ZM45.2299 39.6486H47.2859V37.6666H45.2299V35.6836H56.5369C56.8046 35.6794 57.0632 35.7813 57.2558 35.9673C57.4485 36.1532 57.5597 36.4079 57.5649 36.6756V37.6666H49.3409V39.6486H58.5929C58.8605 39.6441 59.1191 39.7459 59.3118 39.9316C59.5045 40.1174 59.6157 40.372 59.6209 40.6396V48.2556C58.654 47.8092 57.6019 47.5776 56.5369 47.5766H45.2299V39.6486ZM19.0369 7.04265C19.3263 6.44556 19.488 5.79472 19.5119 5.13164L37.4939 15.0106C38.2727 15.4288 38.9249 16.0484 39.3823 16.8049C39.8397 17.5613 40.0855 18.4267 40.0939 19.3107V31.7107H32.8939V24.6316C33.7608 24.4295 34.5352 23.9433 35.094 23.2504C35.6528 22.5575 35.9639 21.6977 35.9779 20.8076C35.9571 19.737 35.5126 18.7183 34.7417 17.975C33.9708 17.2317 32.9366 16.8244 31.8659 16.8426C31.137 16.8455 30.4216 17.0392 29.7909 17.4047L19.0369 7.04265ZM29.8099 20.8156C29.7952 20.4059 29.9032 20.0012 30.1201 19.6533C30.337 19.3054 30.6529 19.0302 31.0273 18.8632C31.4017 18.6961 31.8175 18.6447 32.2213 18.7156C32.6251 18.7865 32.9985 18.9765 33.2936 19.2611C33.5887 19.5457 33.792 19.912 33.8774 20.3129C33.9629 20.7139 33.9265 21.1313 33.7731 21.5115C33.6197 21.8916 33.3561 22.2173 33.0163 22.4467C32.6765 22.676 32.2759 22.7986 31.8659 22.7986C31.3305 22.8075 30.8135 22.6037 30.4281 22.232C30.0427 21.8603 29.8204 21.351 29.8099 20.8156ZM26.7269 47.6767L29.4599 34.4986C29.5108 34.27 29.6387 34.0657 29.8222 33.9201C30.0057 33.7744 30.2336 33.6963 30.4679 33.6987H42.1459C42.4135 33.6941 42.6721 33.7959 42.8648 33.9816C43.0575 34.1674 43.1687 34.422 43.1739 34.6897V47.5756H29.8099C28.7452 47.5764 27.6934 47.8081 26.7269 48.2547V47.6767ZM56.5369 59.4766H29.8099C29.1433 59.5017 28.4786 59.3921 27.8554 59.1543C27.2321 58.9165 26.6633 58.5554 26.1829 58.0927C25.7024 57.6299 25.3202 57.075 25.0592 56.4612C24.7982 55.8474 24.6636 55.1872 24.6636 54.5202C24.6636 53.8531 24.7982 53.1929 25.0592 52.5791C25.3202 51.9653 25.7024 51.4104 26.1829 50.9477C26.6633 50.4849 27.2321 50.1238 27.8554 49.886C28.4786 49.6482 29.1433 49.5386 29.8099 49.5636H56.5369C57.2035 49.5386 57.8683 49.6482 58.4915 49.886C59.1147 50.1238 59.6835 50.4849 60.164 50.9477C60.6444 51.4104 61.0266 51.9653 61.2876 52.5791C61.5487 53.1929 61.6832 53.8531 61.6832 54.5202C61.6832 55.1872 61.5487 55.8474 61.2876 56.4612C61.0266 57.075 60.6444 57.6299 60.164 58.0927C59.6835 58.5554 59.1147 58.9165 58.4915 59.1543C57.8683 59.3921 57.2035 59.5017 56.5369 59.4766Z" fill="#FF5A3C"/>
<path d="M55.5089 50.5557C54.9277 50.5555 54.3529 50.6772 53.8217 50.913C53.2904 51.1488 52.8146 51.4935 52.4249 51.9247C52.0352 51.4937 51.5594 51.1491 51.0283 50.9133C50.4972 50.6775 49.9225 50.5557 49.3414 50.5557C48.7603 50.5557 48.1857 50.6775 47.6545 50.9133C47.1234 51.1491 46.6476 51.4937 46.2579 51.9247C45.8681 51.4936 45.3922 51.1491 44.861 50.9133C44.3298 50.6774 43.7551 50.5556 43.1739 50.5556C42.5927 50.5556 42.018 50.6774 41.4868 50.9133C40.9556 51.1491 40.4797 51.4936 40.0899 51.9247C39.7001 51.4936 39.2242 51.1491 38.693 50.9133C38.1618 50.6774 37.5871 50.5556 37.0059 50.5556C36.4247 50.5556 35.85 50.6774 35.3188 50.9133C34.7876 51.1491 34.3117 51.4936 33.9219 51.9247C33.5324 51.4933 33.0566 51.1485 32.5253 50.9126C31.9941 50.6768 31.4192 50.5552 30.8379 50.5557C30.3054 50.5368 29.7746 50.6254 29.2771 50.8161C28.7796 51.0068 28.3256 51.2958 27.9422 51.6658C27.5589 52.0358 27.254 52.4792 27.0457 52.9696C26.8374 53.4601 26.7301 53.9874 26.7301 54.5202C26.7301 55.053 26.8374 55.5804 27.0457 56.0708C27.254 56.5612 27.5589 57.0047 27.9422 57.3747C28.3256 57.7447 28.7796 58.0336 29.2771 58.2244C29.7746 58.4151 30.3054 58.5036 30.8379 58.4847C31.4193 58.4852 31.9942 58.3635 32.5255 58.1275C33.0568 57.8915 33.5326 57.5464 33.9219 57.1147C34.3116 57.5461 34.7874 57.8909 35.3186 58.1269C35.8498 58.3629 36.4246 58.4848 37.0059 58.4848C37.5872 58.4848 38.162 58.3629 38.6932 58.1269C39.2245 57.8909 39.7003 57.5461 40.0899 57.1147C40.4796 57.5461 40.9554 57.8909 41.4866 58.1269C42.0178 58.3629 42.5926 58.4848 43.1739 58.4848C43.7552 58.4848 44.33 58.3629 44.8612 58.1269C45.3925 57.8909 45.8683 57.5461 46.2579 57.1147C46.6475 57.546 47.1232 57.8908 47.6543 58.1268C48.1855 58.3628 48.7602 58.4847 49.3414 58.4847C49.9226 58.4847 50.4974 58.3628 51.0285 58.1268C51.5596 57.8908 52.0354 57.546 52.4249 57.1147C52.8144 57.5463 53.2902 57.8913 53.8214 58.1273C54.3527 58.3633 54.9276 58.485 55.5089 58.4847C56.0414 58.5036 56.5722 58.4151 57.0697 58.2244C57.5672 58.0336 58.0212 57.7447 58.4046 57.3747C58.788 57.0047 59.0929 56.5612 59.3011 56.0708C59.5094 55.5804 59.6167 55.053 59.6167 54.5202C59.6167 53.9874 59.5094 53.4601 59.3011 52.9696C59.0929 52.4792 58.788 52.0358 58.4046 51.6658C58.0212 51.2958 57.5672 51.0068 57.0697 50.8161C56.5722 50.6254 56.0414 50.5368 55.5089 50.5557ZM30.8379 56.5027C30.4489 56.4886 30.0725 56.3603 29.7559 56.1338C29.4392 55.9074 29.1961 55.5928 29.057 55.2292C28.9178 54.8656 28.8887 54.4691 28.9733 54.089C29.0579 53.709 29.2524 53.3623 29.5326 53.092C29.8128 52.8217 30.1664 52.6399 30.5492 52.5691C30.932 52.4983 31.3272 52.5417 31.6856 52.6939C32.0439 52.8461 32.3495 53.1004 32.5644 53.425C32.7793 53.7497 32.8939 54.1304 32.8939 54.5197C32.8826 55.0545 32.66 55.5631 32.2747 55.9341C31.8894 56.3052 31.3728 56.5086 30.8379 56.4997V56.5027ZM37.0059 56.5027C36.6169 56.4886 36.2405 56.3603 35.9239 56.1338C35.6072 55.9074 35.3641 55.5928 35.225 55.2292C35.0858 54.8656 35.0567 54.4691 35.1413 54.089C35.2259 53.709 35.4204 53.3623 35.7006 53.092C35.9808 52.8217 36.3344 52.6399 36.7172 52.5691C37.1 52.4983 37.4952 52.5417 37.8536 52.6939C38.2119 52.8461 38.5175 53.1004 38.7324 53.425C38.9473 53.7497 39.0619 54.1304 39.0619 54.5197C39.0509 55.0546 38.8283 55.5633 38.4429 55.9344C38.0576 56.3056 37.5408 56.5088 37.0059 56.4997V56.5027ZM43.1739 56.5027C42.7849 56.4886 42.4085 56.3603 42.0919 56.1338C41.7752 55.9074 41.5321 55.5928 41.393 55.2292C41.2538 54.8656 41.2247 54.4691 41.3093 54.089C41.3939 53.709 41.5884 53.3623 41.8686 53.092C42.1488 52.8217 42.5024 52.6399 42.8852 52.5691C43.268 52.4983 43.6632 52.5417 44.0216 52.6939C44.3799 52.8461 44.6855 53.1004 44.9004 53.425C45.1153 53.7497 45.2299 54.1304 45.2299 54.5197C45.2189 55.0546 44.9963 55.5633 44.6109 55.9344C44.2256 56.3056 43.7088 56.5088 43.1739 56.4997V56.5027ZM49.3409 56.5027C48.9519 56.4886 48.5755 56.3603 48.2589 56.1338C47.9422 55.9074 47.6991 55.5928 47.56 55.2292C47.4208 54.8656 47.3917 54.4691 47.4763 54.089C47.5609 53.709 47.7554 53.3623 48.0356 53.092C48.3158 52.8217 48.6694 52.6399 49.0522 52.5691C49.435 52.4983 49.8302 52.5417 50.1886 52.6939C50.5469 52.8461 50.8525 53.1004 51.0674 53.425C51.2823 53.7497 51.3969 54.1304 51.3969 54.5197C51.3859 55.0546 51.1633 55.5633 50.7779 55.9344C50.3926 56.3056 49.8758 56.5088 49.3409 56.4997V56.5027ZM55.5089 56.5027C55.1199 56.4886 54.7435 56.3603 54.4269 56.1338C54.1102 55.9074 53.8671 55.5928 53.728 55.2292C53.5888 54.8656 53.5597 54.4691 53.6443 54.089C53.7289 53.709 53.9234 53.3623 54.2036 53.092C54.4838 52.8217 54.8374 52.6399 55.2202 52.5691C55.603 52.4983 55.9982 52.5417 56.3566 52.6939C56.7149 52.8461 57.0205 53.1004 57.2354 53.425C57.4503 53.7497 57.5649 54.1304 57.5649 54.5197C57.5539 55.0546 57.3313 55.5633 56.9459 55.9344C56.5606 56.3056 56.0438 56.5088 55.5089 56.4997V56.5027Z" fill="#FF5A3C"/>
<path d="M42.1459 35.6836H31.0229L29.8299 41.4366L29.8099 43.6136H42.1459V35.6836ZM40.0899 41.6316H31.8899L32.7119 37.6666H40.0899V41.6316Z" fill="#FF5A3C"/>
<path d="M57.5649 41.6316H53.4529V43.6136H57.5649V41.6316Z" fill="#FF5A3C"/>
<path d="M51.3979 41.6316H47.2859V43.6136H51.3979V41.6316Z" fill="#FF5A3C"/>
</svg>
