<svg width="68" height="64" viewBox="0 0 68 64" fill="none" xmlns="http://www.w3.org/2000/svg">
<path opacity="0.16" d="M54.5 0C57.17 0 59.7801 0.791761 62.0002 2.27516C64.2203 3.75856 65.9506 5.86697 66.9724 8.33377C67.9942 10.8006 68.2615 13.515 67.7406 16.1337C67.2197 18.7525 65.934 21.1579 64.0459 23.0459C62.1579 24.934 59.7525 26.2197 57.1337 26.7406C54.515 27.2615 51.8006 26.9942 49.3338 25.9724C46.867 24.9506 44.7586 23.2203 43.2752 21.0002C41.7918 18.7801 41 16.17 41 13.5C41 9.91958 42.4223 6.4858 44.9541 3.95406C47.4858 1.42232 50.9196 0 54.5 0Z" fill="#FF5A3C"/>
<path d="M57.853 7.0512H1.286C0.954063 7.0426 0.632262 7.16598 0.391181 7.39431C0.1501 7.62265 0.00942093 7.93728 0 8.26919L0 61.8632C0.00942093 62.1951 0.1501 62.5098 0.391181 62.7381C0.632262 62.9664 0.954063 63.0898 1.286 63.0812H9C9.33194 63.0898 9.65374 62.9664 9.89482 62.7381C10.1359 62.5098 10.2766 62.1951 10.286 61.8632V60.6452H47.568C47.9055 60.647 48.2309 60.5192 48.477 60.2882L56.191 52.9802C56.309 52.8698 56.4032 52.7365 56.4678 52.5885C56.5325 52.4404 56.5662 52.2807 56.567 52.1192V16.7962H57.853C58.1849 16.8048 58.5067 16.6814 58.7478 16.4531C58.9889 16.2248 59.1296 15.9101 59.139 15.5782V8.26919C59.1296 7.93728 58.9889 7.62265 58.7478 7.39431C58.5067 7.16598 58.1849 7.0426 57.853 7.0512ZM7.714 60.6452H2.571V16.7962H7.714V60.6452ZM7.714 14.3602H2.571V9.48721H7.714V14.3602ZM54 51.6142L47.04 58.2142H46.286V50.9012H54V51.6142ZM54 48.4652H45C44.668 48.4563 44.346 48.5797 44.1049 48.808C43.8638 49.0364 43.7232 49.3512 43.714 49.6832V58.2092H10.285V36.2812H16.713C16.8788 36.2907 17.0448 36.2663 17.2009 36.2093C17.3569 36.1524 17.4997 36.0643 17.6204 35.9502C17.7412 35.8362 17.8374 35.6987 17.9032 35.5462C17.9689 35.3936 18.0028 35.2293 18.0028 35.0632C18.0028 34.8971 17.9689 34.7327 17.9032 34.5802C17.8374 34.4277 17.7412 34.2902 17.6204 34.1762C17.4997 34.0621 17.3569 33.974 17.2009 33.917C17.0448 33.8601 16.8788 33.8357 16.713 33.8452H10.285V16.7962H28.285V22.8862C28.301 23.2164 28.4434 23.5278 28.6827 23.7558C28.922 23.9839 29.2399 24.1111 29.5705 24.1111C29.9011 24.1111 30.219 23.9839 30.4583 23.7558C30.6976 23.5278 30.84 23.2164 30.856 22.8862V16.7962H54V48.4652ZM56.571 14.3602H10.285V9.48721H56.567L56.571 14.3602Z" fill="#FF5A3C"/>
<path d="M29.569 28.9763C29.2372 28.9679 28.9157 29.0915 28.6748 29.3198C28.434 29.5481 28.2934 29.8625 28.284 30.1943V33.8483H24.427C24.2612 33.8388 24.0952 33.8632 23.9391 33.9201C23.7831 33.977 23.6403 34.0652 23.5196 34.1793C23.3988 34.2933 23.3026 34.4308 23.2368 34.5833C23.1711 34.7358 23.1372 34.9002 23.1372 35.0662C23.1372 35.2323 23.1711 35.3967 23.2368 35.5492C23.3026 35.7017 23.3988 35.8392 23.5196 35.9533C23.6403 36.0673 23.7831 36.1555 23.9391 36.2124C24.0952 36.2693 24.2612 36.2938 24.427 36.2843H29.569C29.901 36.2931 30.223 36.1698 30.4641 35.9414C30.7052 35.713 30.8458 35.3983 30.855 35.0662V30.1943C30.8456 29.8624 30.7049 29.5477 30.4638 29.3194C30.2227 29.0911 29.9009 28.9676 29.569 28.9763Z" fill="#FF5A3C"/>
</svg>
