<svg width="72" height="65" viewBox="0 0 72 65" fill="none" xmlns="http://www.w3.org/2000/svg">
<path opacity="0.16" d="M58.4998 0C61.1698 0 63.7799 0.791761 66 2.27516C68.22 3.75856 69.9503 5.86697 70.9721 8.33377C71.9939 10.8006 72.2613 13.515 71.7404 16.1337C71.2195 18.7525 69.9337 21.1579 68.0457 23.0459C66.1577 24.934 63.7522 26.2197 61.1335 26.7406C58.5147 27.2615 55.8003 26.9942 53.3335 25.9724C50.8667 24.9506 48.7583 23.2203 47.2749 21.0002C45.7915 18.7801 44.9998 16.17 44.9998 13.5C44.9998 9.91958 46.4221 6.4858 48.9538 3.95406C51.4856 1.42232 54.9193 0 58.4998 0Z" fill="#FF5A3C"/>
<path d="M64.8077 26.7211C64.3421 25.1715 63.4582 23.7803 62.2532 22.7005C61.0482 21.6206 59.5689 20.8938 57.9777 20.6001C57.7067 20.5471 57.4357 20.5561 57.1637 20.5261C54.7168 10.6701 45.3887 3.62109 34.3487 3.62109H30.7327C19.6938 3.62109 10.3657 10.6711 7.91675 20.5211C6.19576 20.6996 4.55785 21.3514 3.18475 22.4041C2.16002 23.176 1.33609 24.1831 0.782539 25.3404C0.228988 26.4978 -0.0379256 27.7713 0.00434073 29.0535C0.0466071 30.3357 0.396812 31.589 1.02538 32.7073C1.65395 33.8257 2.54241 34.7764 3.61575 35.4791V50.6211C3.63794 51.8219 3.98612 52.9942 4.62304 54.0124C5.25996 55.0307 6.16167 55.8567 7.23175 56.4021V59.0141C7.28644 60.4001 7.88778 61.7079 8.90424 62.6517C9.9207 63.5954 11.2696 64.0982 12.6557 64.0501C14.0419 64.0982 15.3908 63.5954 16.4073 62.6517C17.4237 61.7079 18.0251 60.4001 18.0798 59.0141V57.3361H46.9997V59.0151C47.1 60.385 47.7149 61.6662 48.721 62.6013C49.727 63.5365 51.0497 64.0562 52.4232 64.0562C53.7968 64.0562 55.1195 63.5365 56.1255 62.6013C57.1316 61.6662 57.7465 60.385 57.8467 59.0151V56.4031C58.9175 55.858 59.82 55.032 60.4574 54.0136C61.0949 52.9951 61.4434 51.8224 61.4657 50.6211V35.4821C62.8643 34.5503 63.9378 33.2058 64.5368 31.6356C65.1357 30.0655 65.2304 28.3476 64.8077 26.7211ZM30.7297 6.97809H34.3447C43.4987 6.97809 51.2507 12.7101 53.5087 20.7781C52.367 21.0714 51.292 21.5806 50.3417 22.2781C49.3141 23.0287 48.4765 24.0096 47.8961 25.1422C47.3158 26.2747 47.0088 27.5275 46.9997 28.8001V37.1931H18.0767V29.1591C18.0511 27.2436 17.4018 25.3886 16.2272 23.8752C15.0527 22.3618 13.417 21.2724 11.5677 20.7721C13.8287 12.7071 21.5798 6.97809 30.7297 6.97809ZM50.6147 42.2291C50.5968 42.6912 50.3964 43.1274 50.0576 43.442C49.7187 43.7567 49.2689 43.9243 48.8067 43.9081H16.2687C16.038 43.925 15.8062 43.8941 15.5879 43.8175C15.3696 43.7408 15.1695 43.6199 15 43.4624C14.8305 43.3049 14.6953 43.1141 14.6029 42.902C14.5105 42.6899 14.4628 42.461 14.4628 42.2296C14.4628 41.9982 14.5105 41.7693 14.6029 41.5572C14.6953 41.3451 14.8305 41.1543 15 40.9968C15.1695 40.8393 15.3696 40.7184 15.5879 40.6417C15.8062 40.565 16.038 40.5342 16.2687 40.5511H48.8067C49.2687 40.5349 49.7184 40.7023 50.0572 41.0168C50.396 41.3313 50.5965 41.7672 50.6147 42.2291ZM14.4607 59.0151C14.4252 59.4701 14.2194 59.895 13.8843 60.2049C13.5493 60.5148 13.1097 60.687 12.6532 60.687C12.1968 60.687 11.7572 60.5148 11.4222 60.2049C11.0871 59.895 10.8813 59.4701 10.8457 59.0151V57.3361H14.4607V59.0151ZM54.2297 59.0151C54.1942 59.4701 53.9884 59.895 53.6533 60.2049C53.3183 60.5148 52.8787 60.687 52.4222 60.687C51.9658 60.687 51.5262 60.5148 51.1912 60.2049C50.8561 59.895 50.6503 59.4701 50.6147 59.0151V57.3361H54.2297V59.0151ZM58.7437 33.1331C58.4763 33.2707 58.2513 33.4783 58.0927 33.7339C57.9342 33.9895 57.8482 34.2834 57.8438 34.5841V50.6211C57.8065 51.5446 57.4055 52.4159 56.7283 53.0448C56.051 53.6737 55.1525 54.0092 54.2287 53.9781H10.8457C9.92203 54.0092 9.0235 53.6737 8.34625 53.0448C7.66899 52.4159 7.26799 51.5446 7.23075 50.6211V34.5831C7.22591 34.2825 7.13967 33.9888 6.98119 33.7333C6.82271 33.4778 6.59792 33.27 6.33075 33.1321C5.58869 32.7735 4.95122 32.2303 4.47947 31.5545C4.00772 30.8787 3.71752 30.0931 3.63671 29.2729C3.5559 28.4527 3.68718 27.6255 4.01797 26.8707C4.34875 26.1158 4.86795 25.4586 5.52575 24.9621C6.14694 24.4779 6.86175 24.1276 7.62508 23.9335C8.38841 23.7393 9.18369 23.7055 9.96075 23.8341C11.2207 24.043 12.3652 24.6933 13.1897 25.6687C14.0141 26.6441 14.4647 27.881 14.4607 29.1581V37.5011C13.4368 37.8073 12.5358 38.4293 11.8866 39.2783C11.2373 40.1272 10.873 41.1597 10.8457 42.2281C10.9004 43.6139 11.5016 44.9216 12.5179 45.8653C13.5341 46.8091 14.8827 47.312 16.2687 47.2641H48.8067C50.1928 47.312 51.5414 46.8091 52.5576 45.8653C53.5739 44.9216 54.1751 43.6139 54.2297 42.2281C54.2024 41.1597 53.8381 40.1272 53.1889 39.2783C52.5397 38.4293 51.6387 37.8073 50.6147 37.5011V28.8011C50.6206 28.0377 50.8052 27.2864 51.1537 26.6072C51.5022 25.928 52.005 25.3399 52.6217 24.8901C53.2745 24.4048 54.0231 24.0639 54.8178 23.8901C55.6124 23.7163 56.435 23.7136 57.2307 23.8821C58.1759 24.0558 59.0547 24.4869 59.7707 25.1279C60.4866 25.7689 61.0119 26.5949 61.2887 27.5151C61.5807 28.6014 61.4865 29.7553 61.0224 30.7799C60.5582 31.8045 59.7529 32.6362 58.7437 33.1331Z" fill="#FF5A3C"/>
</svg>
