<svg width="64" height="63" viewBox="0 0 64 63" fill="none" xmlns="http://www.w3.org/2000/svg">
<path opacity="0.16" d="M50.5 0C53.17 0 55.7801 0.791761 58.0002 2.27516C60.2203 3.75856 61.9506 5.86697 62.9724 8.33377C63.9942 10.8006 64.2615 13.515 63.7406 16.1337C63.2197 18.7525 61.934 21.1579 60.0459 23.0459C58.1579 24.934 55.7525 26.2197 53.1337 26.7406C50.515 27.2615 47.8006 26.9942 45.3338 25.9724C42.867 24.9506 40.7586 23.2203 39.2752 21.0002C37.7918 18.7801 37 16.17 37 13.5C37 9.91958 38.4223 6.4858 40.9541 3.95406C43.4858 1.42232 46.9196 0 50.5 0Z" fill="#FF5A3C"/>
<path d="M56.616 62.4011H45.945C45.8344 62.4023 45.7247 62.3817 45.6221 62.3405C45.5195 62.2993 45.426 62.2383 45.347 62.1609C45.2679 62.0836 45.2049 61.9914 45.1615 61.8897C45.1181 61.788 45.0952 61.6787 45.094 61.5682V26.5682C45.0952 26.4576 45.1181 26.3483 45.1615 26.2466C45.2049 26.1449 45.2679 26.0527 45.347 25.9754C45.426 25.898 45.5195 25.837 45.6221 25.7958C45.7247 25.7546 45.8344 25.734 45.945 25.7352H56.616C56.7266 25.734 56.8363 25.7546 56.9389 25.7958C57.0415 25.837 57.135 25.898 57.214 25.9754C57.2931 26.0527 57.3561 26.1449 57.3995 26.2466C57.4429 26.3483 57.4658 26.4576 57.467 26.5682V61.5682C57.4658 61.6787 57.4429 61.788 57.3995 61.8897C57.3561 61.9914 57.2931 62.0836 57.214 62.1609C57.135 62.2383 57.0415 62.2993 56.9389 62.3405C56.8363 62.3817 56.7266 62.4023 56.616 62.4011ZM46.796 60.7341H55.762V27.3982H46.796V60.7341Z" fill="#FF5A3C"/>
<path d="M58.707 27.3982H45.945C45.7216 27.4003 45.5065 27.3137 45.3469 27.1573C45.1873 27.001 45.0964 26.7876 45.094 26.5642V22.3902C45.095 22.2796 45.1179 22.1702 45.1612 22.0684C45.2046 21.9666 45.2676 21.8743 45.3466 21.7968C45.4257 21.7193 45.5192 21.6582 45.6219 21.617C45.7245 21.5757 45.8343 21.555 45.945 21.5562H58.707C58.8177 21.555 58.9275 21.5757 59.0301 21.617C59.1328 21.6582 59.2263 21.7193 59.3054 21.7968C59.3844 21.8743 59.4474 21.9666 59.4908 22.0684C59.5341 22.1702 59.557 22.2796 59.558 22.3902V26.5642C59.5556 26.7876 59.4647 27.001 59.3051 27.1573C59.1455 27.3137 58.9304 27.4003 58.707 27.3982ZM46.796 25.7312H57.856V23.2232H46.796V25.7312Z" fill="#FF5A3C"/>
<path d="M13.613 62.4011H2.942C2.83143 62.4023 2.7217 62.3817 2.61909 62.3405C2.51648 62.2993 2.42299 62.2383 2.34397 62.1609C2.26494 62.0836 2.20193 61.9914 2.15852 61.8897C2.11512 61.788 2.09218 61.6787 2.091 61.5682V26.5682C2.09218 26.4576 2.11512 26.3483 2.15852 26.2466C2.20193 26.1449 2.26494 26.0527 2.34397 25.9754C2.42299 25.898 2.51648 25.837 2.61909 25.7958C2.7217 25.7546 2.83143 25.734 2.942 25.7352H13.613C13.7236 25.734 13.8333 25.7546 13.9359 25.7958C14.0385 25.837 14.132 25.898 14.211 25.9754C14.2901 26.0527 14.3531 26.1449 14.3965 26.2466C14.4399 26.3483 14.4628 26.4576 14.464 26.5682V61.5682C14.4628 61.6787 14.4399 61.788 14.3965 61.8897C14.3531 61.9914 14.2901 62.0836 14.211 62.1609C14.132 62.2383 14.0385 62.2993 13.9359 62.3405C13.8333 62.3817 13.7236 62.4023 13.613 62.4011ZM3.793 60.7341H12.762V27.3982H3.793V60.7341Z" fill="#FF5A3C"/>
<path d="M13.613 27.3982H0.851C0.627591 27.4003 0.412472 27.3137 0.252905 27.1573C0.0933379 27.001 0.00237508 26.7876 0 26.5642V22.3902C0.00104507 22.2796 0.0238939 22.1702 0.0672398 22.0684C0.110586 21.9666 0.173578 21.8743 0.252615 21.7968C0.331652 21.7193 0.425183 21.6582 0.527859 21.617C0.630535 21.5757 0.740342 21.555 0.851 21.5562H13.613C13.7237 21.555 13.8335 21.5757 13.9361 21.617C14.0388 21.6582 14.1323 21.7193 14.2114 21.7968C14.2904 21.8743 14.3534 21.9666 14.3968 22.0684C14.4401 22.1702 14.463 22.2796 14.464 22.3902V26.5642C14.4616 26.7876 14.3707 27.001 14.2111 27.1573C14.0515 27.3137 13.8364 27.4003 13.613 27.3982ZM1.702 25.7312H12.762V23.2232H1.702V25.7312Z" fill="#FF5A3C"/>
<path d="M48.497 14.5222H11.062C10.9514 14.5234 10.8417 14.5028 10.7391 14.4616C10.6365 14.4203 10.543 14.3593 10.464 14.282C10.3849 14.2046 10.3219 14.1125 10.2785 14.0108C10.2351 13.909 10.2122 13.7998 10.211 13.6892V9.40022C10.2134 9.17681 10.3043 8.96349 10.4639 8.80711C10.6235 8.65073 10.8386 8.56407 11.062 8.5662H48.497C48.7204 8.56407 48.9355 8.65073 49.0951 8.80711C49.2547 8.96349 49.3456 9.17681 49.348 9.40022V13.6892C49.3468 13.7998 49.3239 13.909 49.2805 14.0108C49.2371 14.1125 49.1741 14.2046 49.095 14.282C49.016 14.3593 48.9225 14.4203 48.8199 14.4616C48.7173 14.5028 48.6076 14.5234 48.497 14.5222ZM11.911 12.8552H47.646V10.2342H11.911V12.8552Z" fill="#FF5A3C"/>
<path d="M26.776 5.71827H24.3C24.1881 5.72215 24.0766 5.70345 23.9721 5.66331C23.8676 5.62317 23.7722 5.56241 23.6917 5.48463C23.6112 5.40685 23.5471 5.31364 23.5034 5.21058C23.4597 5.10753 23.4371 4.99673 23.4371 4.88478C23.4371 4.77282 23.4597 4.662 23.5034 4.55894C23.5471 4.45589 23.6112 4.3627 23.6917 4.28492C23.7722 4.20714 23.8676 4.14636 23.9721 4.10621C24.0766 4.06607 24.1881 4.04741 24.3 4.05128H26.776C26.8879 4.04741 26.9994 4.06607 27.1039 4.10621C27.2084 4.14636 27.3038 4.20714 27.3843 4.28492C27.4648 4.3627 27.5289 4.45589 27.5726 4.55894C27.6163 4.662 27.6389 4.77282 27.6389 4.88478C27.6389 4.99673 27.6163 5.10753 27.5726 5.21058C27.5289 5.31364 27.4648 5.40685 27.3843 5.48463C27.3038 5.56241 27.2084 5.62317 27.1039 5.66331C26.9994 5.70345 26.8879 5.72215 26.776 5.71827Z" fill="#FF5A3C"/>
<path d="M43.392 10.2392H16.162C16.0513 10.2404 15.9415 10.2198 15.8389 10.1785C15.7362 10.1372 15.6427 10.0761 15.5636 9.99861C15.4846 9.92115 15.4216 9.82888 15.3782 9.72706C15.3349 9.62524 15.312 9.51585 15.311 9.40519V4.88722C15.3122 4.77664 15.3351 4.66736 15.3785 4.56565C15.4219 4.46395 15.4849 4.3718 15.564 4.29445C15.643 4.21709 15.7365 4.15607 15.8391 4.11485C15.9417 4.07363 16.0514 4.05302 16.162 4.05421H19.191C19.3029 4.05033 19.4144 4.06903 19.5189 4.10917C19.6234 4.14932 19.7188 4.21007 19.7993 4.28785C19.8798 4.36563 19.9439 4.45884 19.9876 4.5619C20.0313 4.66496 20.0539 4.77575 20.0539 4.88771C20.0539 4.99966 20.0313 5.11046 19.9876 5.21351C19.9439 5.31657 19.8798 5.40978 19.7993 5.48756C19.7188 5.56534 19.6234 5.6261 19.5189 5.66624C19.4144 5.70638 19.3029 5.72508 19.191 5.7212H17.016V8.57222H42.541V5.7212H40.362C40.2501 5.72508 40.1386 5.70638 40.0341 5.66624C39.9296 5.6261 39.8342 5.56534 39.7537 5.48756C39.6732 5.40978 39.6091 5.31657 39.5654 5.21351C39.5217 5.11046 39.4991 4.99966 39.4991 4.88771C39.4991 4.77575 39.5217 4.66496 39.5654 4.5619C39.6091 4.45884 39.6732 4.36563 39.7537 4.28785C39.8342 4.21007 39.9296 4.14932 40.0341 4.10917C40.1386 4.06903 40.2501 4.05033 40.362 4.05421H43.392C43.5026 4.05302 43.6123 4.07363 43.7149 4.11485C43.8175 4.15607 43.911 4.21709 43.99 4.29445C44.0691 4.3718 44.1321 4.46395 44.1755 4.56565C44.2189 4.66736 44.2418 4.77664 44.243 4.88722V9.40519C44.242 9.51585 44.2191 9.62524 44.1758 9.72706C44.1324 9.82888 44.0694 9.92115 43.9904 9.99861C43.9113 10.0761 43.8178 10.1372 43.7151 10.1785C43.6125 10.2198 43.5027 10.2404 43.392 10.2392Z" fill="#FF5A3C"/>
<path d="M35.262 5.71827H32.731C32.6191 5.72215 32.5076 5.70345 32.4031 5.66331C32.2986 5.62317 32.2032 5.56241 32.1227 5.48463C32.0422 5.40685 31.9781 5.31364 31.9344 5.21058C31.8907 5.10753 31.8681 4.99673 31.8681 4.88478C31.8681 4.77282 31.8907 4.662 31.9344 4.55894C31.9781 4.45589 32.0422 4.3627 32.1227 4.28492C32.2032 4.20714 32.2986 4.14636 32.4031 4.10621C32.5076 4.06607 32.6191 4.04741 32.731 4.05128H35.262C35.3739 4.04741 35.4854 4.06607 35.5899 4.10621C35.6944 4.14636 35.7898 4.20714 35.8703 4.28492C35.9508 4.3627 36.0149 4.45589 36.0586 4.55894C36.1023 4.662 36.1249 4.77282 36.1249 4.88478C36.1249 4.99673 36.1023 5.10753 36.0586 5.21058C36.0149 5.31364 35.9508 5.40685 35.8703 5.48463C35.7898 5.56241 35.6944 5.62317 35.5899 5.66331C35.4854 5.70345 35.3739 5.72215 35.262 5.71827Z" fill="#FF5A3C"/>
<path d="M45.945 62.4013H13.613C13.5024 62.4025 13.3927 62.3818 13.2901 62.3406C13.1875 62.2994 13.094 62.2384 13.015 62.161C12.9359 62.0837 12.8729 61.9915 12.8295 61.8898C12.7861 61.7881 12.7632 61.6789 12.762 61.5683V13.6893C12.763 13.5786 12.7859 13.4692 12.8292 13.3674C12.8726 13.2656 12.9356 13.1733 13.0146 13.0959C13.0937 13.0184 13.1872 12.9573 13.2899 12.916C13.3925 12.8747 13.5023 12.8541 13.613 12.8553H45.945C46.0557 12.8541 46.1655 12.8747 46.2681 12.916C46.3708 12.9573 46.4644 13.0184 46.5434 13.0959C46.6224 13.1733 46.6854 13.2656 46.7288 13.3674C46.7721 13.4692 46.795 13.5786 46.796 13.6893V61.5683C46.7948 61.6789 46.7719 61.7881 46.7285 61.8898C46.6851 61.9915 46.6221 62.0837 46.543 62.161C46.464 62.2384 46.3705 62.2994 46.2679 62.3406C46.1653 62.3818 46.0556 62.4025 45.945 62.4013ZM14.462 60.7343H45.092V14.5223H14.462V60.7343Z" fill="#FF5A3C"/>
<path d="M40.202 20.7222H19.356C19.2441 20.7261 19.1326 20.7074 19.0281 20.6672C18.9236 20.6271 18.8282 20.5663 18.7477 20.4885C18.6672 20.4108 18.6031 20.3175 18.5594 20.2145C18.5157 20.1114 18.4931 20.0006 18.4931 19.8887C18.4931 19.7767 18.5157 19.6659 18.5594 19.5628C18.6031 19.4598 18.6672 19.3666 18.7477 19.2888C18.8282 19.2111 18.9236 19.1503 19.0281 19.1101C19.1326 19.07 19.2441 19.0513 19.356 19.0552H40.202C40.3139 19.0513 40.4254 19.07 40.5299 19.1101C40.6344 19.1503 40.7298 19.2111 40.8103 19.2888C40.8908 19.3666 40.9549 19.4598 40.9986 19.5628C41.0423 19.6659 41.0649 19.7767 41.0649 19.8887C41.0649 20.0006 41.0423 20.1114 40.9986 20.2145C40.9549 20.3175 40.8908 20.4108 40.8103 20.4885C40.7298 20.5663 40.6344 20.6271 40.5299 20.6672C40.4254 20.7074 40.3139 20.7261 40.202 20.7222Z" fill="#FF5A3C"/>
<path d="M40.202 26.9234H19.356C19.1348 26.9234 18.9227 26.8355 18.7663 26.6791C18.6099 26.5227 18.522 26.3106 18.522 26.0894C18.522 25.8682 18.6099 25.6561 18.7663 25.4997C18.9227 25.3433 19.1348 25.2554 19.356 25.2554H40.202C40.4232 25.2554 40.6353 25.3433 40.7917 25.4997C40.9481 25.6561 41.036 25.8682 41.036 26.0894C41.036 26.3106 40.9481 26.5227 40.7917 26.6791C40.6353 26.8355 40.4232 26.9234 40.202 26.9234Z" fill="#FF5A3C"/>
<path d="M40.202 33.1223H19.356C19.2441 33.1262 19.1326 33.1075 19.0281 33.0674C18.9236 33.0272 18.8282 32.9665 18.7477 32.8887C18.6672 32.8109 18.6031 32.7177 18.5594 32.6146C18.5157 32.5116 18.4931 32.4008 18.4931 32.2888C18.4931 32.1769 18.5157 32.0661 18.5594 31.963C18.6031 31.86 18.6672 31.7668 18.7477 31.689C18.8282 31.6112 18.9236 31.5504 19.0281 31.5103C19.1326 31.4702 19.2441 31.4515 19.356 31.4553H40.202C40.3139 31.4515 40.4254 31.4702 40.5299 31.5103C40.6344 31.5504 40.7298 31.6112 40.8103 31.689C40.8908 31.7668 40.9549 31.86 40.9986 31.963C41.0423 32.0661 41.0649 32.1769 41.0649 32.2888C41.0649 32.4008 41.0423 32.5116 40.9986 32.6146C40.9549 32.7177 40.8908 32.8109 40.8103 32.8887C40.7298 32.9665 40.6344 33.0272 40.5299 33.0674C40.4254 33.1075 40.3139 33.1262 40.202 33.1223Z" fill="#FF5A3C"/>
<path d="M40.202 39.3213H19.356C19.2441 39.3252 19.1326 39.3065 19.0281 39.2663C18.9236 39.2262 18.8282 39.1654 18.7477 39.0877C18.6672 39.0099 18.6031 38.9167 18.5594 38.8136C18.5157 38.7106 18.4931 38.5998 18.4931 38.4878C18.4931 38.3759 18.5157 38.265 18.5594 38.162C18.6031 38.0589 18.6672 37.9657 18.7477 37.888C18.8282 37.8102 18.9236 37.7494 19.0281 37.7093C19.1326 37.6691 19.2441 37.6504 19.356 37.6543H40.202C40.3139 37.6504 40.4254 37.6691 40.5299 37.7093C40.6344 37.7494 40.7298 37.8102 40.8103 37.888C40.8908 37.9657 40.9549 38.0589 40.9986 38.162C41.0423 38.265 41.0649 38.3759 41.0649 38.4878C41.0649 38.5998 41.0423 38.7106 40.9986 38.8136C40.9549 38.9167 40.8908 39.0099 40.8103 39.0877C40.7298 39.1654 40.6344 39.2262 40.5299 39.2663C40.4254 39.3065 40.3139 39.3252 40.202 39.3213Z" fill="#FF5A3C"/>
<path d="M37.436 62.4013H22.121C21.8979 62.4034 21.683 62.3169 21.5236 62.1607C21.3642 62.0045 21.2734 61.7914 21.271 61.5683V46.5633C21.2734 46.3401 21.3642 46.1271 21.5236 45.9709C21.683 45.8147 21.8979 45.7281 22.121 45.7303H37.436C37.5466 45.7291 37.6563 45.7497 37.7589 45.7909C37.8615 45.8321 37.955 45.8932 38.034 45.9705C38.1131 46.0479 38.1761 46.14 38.2195 46.2417C38.2629 46.3435 38.2858 46.4527 38.287 46.5633V61.5683C38.2858 61.6789 38.2629 61.7881 38.2195 61.8898C38.1761 61.9915 38.1131 62.0837 38.034 62.161C37.955 62.2384 37.8615 62.2994 37.7589 62.3406C37.6563 62.3818 37.5466 62.4025 37.436 62.4013ZM22.972 60.7343H36.586V47.3973H22.972V60.7343Z" fill="#FF5A3C"/>
<path d="M29.779 62.4012C29.6684 62.4023 29.5587 62.3817 29.4561 62.3405C29.3535 62.2993 29.26 62.2383 29.181 62.1609C29.1019 62.0836 29.0389 61.9914 28.9955 61.8897C28.9521 61.788 28.9292 61.6788 28.928 61.5682V46.5632C28.9386 46.3449 29.0328 46.139 29.191 45.9883C29.3493 45.8375 29.5594 45.7534 29.778 45.7534C29.9966 45.7534 30.2067 45.8375 30.365 45.9883C30.5232 46.139 30.6174 46.3449 30.628 46.5632V61.5682C30.6256 61.7911 30.5349 62.0041 30.3757 62.1602C30.2166 62.3164 30.002 62.403 29.779 62.4012Z" fill="#FF5A3C"/>
<path d="M50.429 33.4893H45.945C45.8331 33.4931 45.7216 33.4744 45.6171 33.4343C45.5126 33.3942 45.4172 33.3334 45.3367 33.2556C45.2562 33.1778 45.1921 33.0846 45.1484 32.9816C45.1047 32.8785 45.0821 32.7677 45.0821 32.6558C45.0821 32.5438 45.1047 32.433 45.1484 32.33C45.1921 32.2269 45.2562 32.1337 45.3367 32.0559C45.4172 31.9781 45.5126 31.9174 45.6171 31.8772C45.7216 31.8371 45.8331 31.8184 45.945 31.8223H50.429C50.5409 31.8184 50.6524 31.8371 50.7569 31.8772C50.8614 31.9174 50.9568 31.9781 51.0373 32.0559C51.1178 32.1337 51.1819 32.2269 51.2256 32.33C51.2693 32.433 51.2919 32.5438 51.2919 32.6558C51.2919 32.7677 51.2693 32.8785 51.2256 32.9816C51.1819 33.0846 51.1178 33.1778 51.0373 33.2556C50.9568 33.3334 50.8614 33.3942 50.7569 33.4343C50.6524 33.4744 50.5409 33.4931 50.429 33.4893Z" fill="#FF5A3C"/>
<path d="M50.429 39.1943H45.945C45.8331 39.1982 45.7216 39.1796 45.6171 39.1394C45.5126 39.0993 45.4172 39.0385 45.3367 38.9607C45.2562 38.8829 45.1921 38.7897 45.1484 38.6867C45.1047 38.5836 45.0821 38.4728 45.0821 38.3609C45.0821 38.2489 45.1047 38.1381 45.1484 38.035C45.1921 37.932 45.2562 37.8388 45.3367 37.761C45.4172 37.6832 45.5126 37.6225 45.6171 37.5823C45.7216 37.5422 45.8331 37.5235 45.945 37.5274H50.429C50.5409 37.5235 50.6524 37.5422 50.7569 37.5823C50.8614 37.6225 50.9568 37.6832 51.0373 37.761C51.1178 37.8388 51.1819 37.932 51.2256 38.035C51.2693 38.1381 51.2919 38.2489 51.2919 38.3609C51.2919 38.4728 51.2693 38.5836 51.2256 38.6867C51.1819 38.7897 51.1178 38.8829 51.0373 38.9607C50.9568 39.0385 50.8614 39.0993 50.7569 39.1394C50.6524 39.1796 50.5409 39.1982 50.429 39.1943Z" fill="#FF5A3C"/>
<path d="M50.429 44.8963H45.945C45.8331 44.9002 45.7216 44.8815 45.6171 44.8413C45.5126 44.8012 45.4172 44.7404 45.3367 44.6626C45.2562 44.5848 45.1921 44.4916 45.1484 44.3886C45.1047 44.2855 45.0821 44.1747 45.0821 44.0628C45.0821 43.9508 45.1047 43.84 45.1484 43.737C45.1921 43.6339 45.2562 43.5407 45.3367 43.4629C45.4172 43.3852 45.5126 43.3244 45.6171 43.2842C45.7216 43.2441 45.8331 43.2254 45.945 43.2293H50.429C50.5409 43.2254 50.6524 43.2441 50.7569 43.2842C50.8614 43.3244 50.9568 43.3852 51.0373 43.4629C51.1178 43.5407 51.1819 43.6339 51.2256 43.737C51.2693 43.84 51.2919 43.9508 51.2919 44.0628C51.2919 44.1747 51.2693 44.2855 51.2256 44.3886C51.1819 44.4916 51.1178 44.5848 51.0373 44.6626C50.9568 44.7404 50.8614 44.8012 50.7569 44.8413C50.6524 44.8815 50.5409 44.9002 50.429 44.8963Z" fill="#FF5A3C"/>
<path d="M50.429 50.6043H45.945C45.8331 50.6081 45.7216 50.5895 45.6171 50.5493C45.5126 50.5092 45.4172 50.4484 45.3367 50.3706C45.2562 50.2928 45.1921 50.1997 45.1484 50.0966C45.1047 49.9935 45.0821 49.8827 45.0821 49.7708C45.0821 49.6588 45.1047 49.548 45.1484 49.445C45.1921 49.3419 45.2562 49.2487 45.3367 49.1709C45.4172 49.0931 45.5126 49.0324 45.6171 48.9922C45.7216 48.9521 45.8331 48.9334 45.945 48.9373H50.429C50.5409 48.9334 50.6524 48.9521 50.7569 48.9922C50.8614 49.0324 50.9568 49.0931 51.0373 49.1709C51.1178 49.2487 51.1819 49.3419 51.2256 49.445C51.2693 49.548 51.2919 49.6588 51.2919 49.7708C51.2919 49.8827 51.2693 49.9935 51.2256 50.0966C51.1819 50.1997 51.1178 50.2928 51.0373 50.3706C50.9568 50.4484 50.8614 50.5092 50.7569 50.5493C50.6524 50.5895 50.5409 50.6081 50.429 50.6043Z" fill="#FF5A3C"/>
<path d="M50.429 56.3094H45.945C45.7238 56.3094 45.5117 56.2215 45.3553 56.0651C45.1989 55.9087 45.111 55.6965 45.111 55.4753C45.111 55.2542 45.1989 55.042 45.3553 54.8856C45.5117 54.7292 45.7238 54.6414 45.945 54.6414H50.429C50.6502 54.6414 50.8623 54.7292 51.0187 54.8856C51.1751 55.042 51.263 55.2542 51.263 55.4753C51.263 55.6965 51.1751 55.9087 51.0187 56.0651C50.8623 56.2215 50.6502 56.3094 50.429 56.3094Z" fill="#FF5A3C"/>
<path d="M13.613 33.4893H9.128C9.01611 33.4931 8.90459 33.4744 8.80009 33.4343C8.69558 33.3942 8.60022 33.3334 8.5197 33.2556C8.43918 33.1778 8.37514 33.0846 8.3314 32.9816C8.28767 32.8785 8.26513 32.7677 8.26513 32.6558C8.26513 32.5438 8.28767 32.433 8.3314 32.33C8.37514 32.2269 8.43918 32.1337 8.5197 32.0559C8.60022 31.9781 8.69558 31.9174 8.80009 31.8772C8.90459 31.8371 9.01611 31.8184 9.128 31.8223H13.613C13.7249 31.8184 13.8364 31.8371 13.9409 31.8772C14.0454 31.9174 14.1408 31.9781 14.2213 32.0559C14.3018 32.1337 14.3659 32.2269 14.4096 32.33C14.4533 32.433 14.4759 32.5438 14.4759 32.6558C14.4759 32.7677 14.4533 32.8785 14.4096 32.9816C14.3659 33.0846 14.3018 33.1778 14.2213 33.2556C14.1408 33.3334 14.0454 33.3942 13.9409 33.4343C13.8364 33.4744 13.7249 33.4931 13.613 33.4893Z" fill="#FF5A3C"/>
<path d="M13.613 39.1943H9.128C9.01611 39.1982 8.90459 39.1796 8.80009 39.1394C8.69558 39.0993 8.60022 39.0385 8.5197 38.9607C8.43918 38.8829 8.37514 38.7897 8.3314 38.6867C8.28767 38.5836 8.26513 38.4728 8.26513 38.3609C8.26513 38.2489 8.28767 38.1381 8.3314 38.035C8.37514 37.932 8.43918 37.8388 8.5197 37.761C8.60022 37.6832 8.69558 37.6225 8.80009 37.5823C8.90459 37.5422 9.01611 37.5235 9.128 37.5274H13.613C13.7249 37.5235 13.8364 37.5422 13.9409 37.5823C14.0454 37.6225 14.1408 37.6832 14.2213 37.761C14.3018 37.8388 14.3659 37.932 14.4096 38.035C14.4533 38.1381 14.4759 38.2489 14.4759 38.3609C14.4759 38.4728 14.4533 38.5836 14.4096 38.6867C14.3659 38.7897 14.3018 38.8829 14.2213 38.9607C14.1408 39.0385 14.0454 39.0993 13.9409 39.1394C13.8364 39.1796 13.7249 39.1982 13.613 39.1943Z" fill="#FF5A3C"/>
<path d="M13.613 44.8963H9.128C9.01611 44.9002 8.90459 44.8815 8.80009 44.8413C8.69558 44.8012 8.60022 44.7404 8.5197 44.6626C8.43918 44.5848 8.37514 44.4916 8.3314 44.3886C8.28767 44.2855 8.26513 44.1747 8.26513 44.0628C8.26513 43.9508 8.28767 43.84 8.3314 43.737C8.37514 43.6339 8.43918 43.5407 8.5197 43.4629C8.60022 43.3852 8.69558 43.3244 8.80009 43.2842C8.90459 43.2441 9.01611 43.2254 9.128 43.2293H13.613C13.7249 43.2254 13.8364 43.2441 13.9409 43.2842C14.0454 43.3244 14.1408 43.3852 14.2213 43.4629C14.3018 43.5407 14.3659 43.6339 14.4096 43.737C14.4533 43.84 14.4759 43.9508 14.4759 44.0628C14.4759 44.1747 14.4533 44.2855 14.4096 44.3886C14.3659 44.4916 14.3018 44.5848 14.2213 44.6626C14.1408 44.7404 14.0454 44.8012 13.9409 44.8413C13.8364 44.8815 13.7249 44.9002 13.613 44.8963Z" fill="#FF5A3C"/>
<path d="M13.613 50.6043H9.128C9.01611 50.6081 8.90459 50.5895 8.80009 50.5493C8.69558 50.5092 8.60022 50.4484 8.5197 50.3706C8.43918 50.2928 8.37514 50.1997 8.3314 50.0966C8.28767 49.9935 8.26513 49.8827 8.26513 49.7708C8.26513 49.6588 8.28767 49.548 8.3314 49.445C8.37514 49.3419 8.43918 49.2487 8.5197 49.1709C8.60022 49.0931 8.69558 49.0324 8.80009 48.9922C8.90459 48.9521 9.01611 48.9334 9.128 48.9373H13.613C13.7249 48.9334 13.8364 48.9521 13.9409 48.9922C14.0454 49.0324 14.1408 49.0931 14.2213 49.1709C14.3018 49.2487 14.3659 49.3419 14.4096 49.445C14.4533 49.548 14.4759 49.6588 14.4759 49.7708C14.4759 49.8827 14.4533 49.9935 14.4096 50.0966C14.3659 50.1997 14.3018 50.2928 14.2213 50.3706C14.1408 50.4484 14.0454 50.5092 13.9409 50.5493C13.8364 50.5895 13.7249 50.6081 13.613 50.6043Z" fill="#FF5A3C"/>
<path d="M13.613 56.3094H9.128C8.90681 56.3094 8.69468 56.2215 8.53827 56.0651C8.38187 55.9087 8.294 55.6965 8.294 55.4753C8.294 55.2542 8.38187 55.042 8.53827 54.8856C8.69468 54.7292 8.90681 54.6414 9.128 54.6414H13.613C13.8342 54.6414 14.0463 54.7292 14.2027 54.8856C14.3591 55.042 14.447 55.2542 14.447 55.4753C14.447 55.6965 14.3591 55.9087 14.2027 56.0651C14.0463 56.2215 13.8342 56.3094 13.613 56.3094Z" fill="#FF5A3C"/>
</svg>
