<svg width="18" height="16" viewBox="0 0 18 16" fill="none" xmlns="http://www.w3.org/2000/svg">
<path d="M3.92857 12.8571V14.2856H0V12.8571H3.92857ZM7.85714 11.4285C8.24777 11.4285 8.57143 11.7522 8.57143 12.1428V14.9999C8.57143 15.3906 8.24777 15.7142 7.85714 15.7142H5C4.60938 15.7142 4.28571 15.3906 4.28571 14.9999V12.1428C4.28571 11.7522 4.60938 11.4285 5 11.4285H7.85714ZM9.64286 7.14279V8.57136H0V7.14279H9.64286ZM2.5 1.4285V2.85707H0V1.4285H2.5ZM17.1429 12.8571V14.2856H8.92857V12.8571H17.1429ZM6.42857 -7.00951e-05C6.8192 -7.00951e-05 7.14286 0.32359 7.14286 0.714215V3.57136C7.14286 3.96198 6.8192 4.28564 6.42857 4.28564H3.57143C3.1808 4.28564 2.85714 3.96198 2.85714 3.57136V0.714215C2.85714 0.32359 3.1808 -7.00951e-05 3.57143 -7.00951e-05H6.42857ZM13.5714 5.71422C13.9621 5.71422 14.2857 6.03788 14.2857 6.4285V9.28564C14.2857 9.67627 13.9621 9.99993 13.5714 9.99993H10.7143C10.3237 9.99993 10 9.67627 10 9.28564V6.4285C10 6.03788 10.3237 5.71422 10.7143 5.71422H13.5714ZM17.1429 7.14279V8.57136H14.6429V7.14279H17.1429ZM17.1429 1.4285V2.85707H7.5V1.4285H17.1429Z" fill="#FF5A3C"/>
</svg>
